<svg height="331.511689" viewBox="0 0 999.99998 1099.2963" width="301.648489" xmlns="http://www.w3.org/2000/svg" xmlns:xlink="http://www.w3.org/1999/xlink"><g transform="matrix(.72843945 0 0 .72843945 -7.95776 -9.43348)"><path d="m707.7832 471.49609a35.950497 35.950497 0 0 0 -35.95117 35.94922 35.950497 35.950497 0 0 0 20.01953 32.15821 15.030049 19.141443 0 0 0 -1.34179 7.83593 15.030049 19.141443 0 0 0 2.67578 10.83399 19.12607 19.12607 0 0 0 -6.77149 14.58008 19.12607 19.12607 0 0 0 19.12696 19.12695 19.12607 19.12607 0 0 0 19.125-19.12695 19.12607 19.12607 0 0 0 -6.76758-14.58985 15.030049 19.141443 0 0 0 2.67187-10.82422 15.030049 19.141443 0 0 0 -.80859-6.18945 35.950497 35.950497 0 0 0 23.9707-33.80469 35.950497 35.950497 0 0 0 -35.94922-35.94922zm6.97657 23.26172a13.311747 13.311747 0 0 1 13.3125 13.31055 13.311747 13.311747 0 0 1 -13.3125 13.3125 13.311747 13.311747 0 0 1 -13.3125-13.3125 13.311747 13.311747 0 0 1 13.3125-13.31055z" fill="#1f1a18"/><path d="m706.66211 478.55469a30.012465 30.012465 0 0 0 -30.01367 30.01172 30.012465 30.012465 0 0 0 23.26367 29.16797c-1.89228 2.50263-3.0918 6.16914-3.0918 10.14453 0 4.79444 2.93635 8.98687 5.55664 11.27734a13.177737 13.177737 0 0 0 -10.01367 12.76367 13.177737 13.177737 0 0 0 13.17774 13.17774 13.177737 13.177737 0 0 0 13.17773-13.17774 13.177737 13.177737 0 0 0 -9.72266-12.71289c2.63525-2.27859 5.61719-6.49708 5.61719-11.32812 0-3.79113-1.09183-7.30111-2.83398-9.78907a30.012465 30.012465 0 0 0 24.89453-29.52343 30.012465 30.012465 0 0 0 -30.01172-30.01172zm8.09766 10.01367a19.12607 19.12607 0 0 1 19.12695 19.12695 19.12607 19.12607 0 0 1 -19.12695 19.125 19.12607 19.12607 0 0 1 -19.12696-19.125 19.12607 19.12607 0 0 1 19.12696-19.12695z" fill="#fff"/><path d="m528.22852 872.15824-91.98438 65.00144v200.30912h533.5293l.0801-201.00588-92.40821-62.36523z" fill="#1f1a18"/><path d="m546.19261 884.94668-23.54708-.37376-73.25758 51.57932 29.90105 8.72114z" fill="#969494"/><path d="m556.68921 883.88621 18.84738-.53927-86.07061 92.23738-9.69064-23.16946z" fill="#969494"/><path d="m585.13914 882.51002 20.65871-.96907-98.53631 138.97275-16.12172-36.73638z" fill="#969494"/><path d="m613.63846 881.01238 21.49563-.0881-66.3911 135.77392-51.89079-.2492z" fill="#969494"/><path d="m643.06281 878.98615 17.00269.48453-40.89562 136.82262-44.10406.129z" fill="#969494"/><path d="m625.88393 1016.0207 40.70073-137.60718 17.13483.70477-15.68008 137.15891z" fill="#969494"/><path d="m858.94791 884.17426 25.04214.28033 73.25758 51.57932-29.90105 8.72114z" fill="#969494"/><path d="m849.94637 883.76788-18.84738-.53927 86.07061 92.23738 9.69064-23.16946z" fill="#969494"/><path d="m821.49644 882.39169-20.65871-.96907 98.53631 138.97278 16.12172-36.73641z" fill="#969494"/><path d="m792.99712 880.89405-21.49563-.0881 66.3911 135.77395 51.89079-.2492z" fill="#969494"/><path d="m763.57277 878.86782-17.00269.48453 40.89562 136.82265 44.10406.129z" fill="#969494"/><path d="m780.75165 1015.9024-40.70073-137.60721-17.13483.70477 15.68008 137.15894z" fill="#969494"/><path d="m689.35769 879.47068 27.35407-.044 15.37289 133.15842-56.38197-.7048z" fill="#969494"/><path d="m530.61915 282.565c-108.75818 57.2624-236.4915 140.73795-308.60381 370.27474l15.13741 15.13741c-3.65771 43.71551-36.19115 204.79609 68.83472 366.66165l25.29131-1.9311c97.66355 134.1065 210.6522 164.2524 271.65678 171.7444 40.46477 4.9695 94.98761 8.4718 100.05071 8.4718v-17.7538c-32.96359-17.2395-183.22251-88.867-225.06097-263.67824l-40.68466 5.84397c-20.94534-46.25246-26.93726-126.11587 15.22468-248.37454l-36.03161-17.22293c64.79059-169.01726 191.92799-211.11651 250.11065-228.95353-78.2809-36.59939-142.04782-81.99999-135.92521-160.21983z" fill="#1f1a18"/><path d="m525.84998 290.36718c-34.92073 45.87132-71.66834 88.74133-88.62541 164.12439 63.05245-13.342 134.92598-15.78735 209.18592-15.2848-28.25365-18.75786-127.32798-59.90323-120.56051-148.83959z" fill="#d9251c"/><path d="m438.85436 421.10288c-3.61107 14.36244-7.22214 28.58233-10.83321 42.61269 25.57163-4.17709 51.14327-7.81432 76.7149-10.99487-130.82079 65.38072-157.22223 185.15542-172.52291 275.39963-23.35329-7.75812-44.09825-20.29816-63.47376-35.34886 51.45315-165.83263 110.32801-225.28745 170.11498-271.66859z" fill="#fff"/><path d="m282.74677 711.93253c20.40935 12.39888 42.03479 21.14949 64.26664 28.08087-10.37059 136.65436 16.09791 213.31365 51.84499 274.8621l-41.01129 13.5339c-63.0566-98.17519-85.04706-208.69078-75.10034-316.47687z" fill="#fff"/><path d="m421.11132 1013.8152c70.15026 95.3258 106.71912 144.9203 243.75111 188.435-29.28033-4.6969-175.01726-38.4501-282.69838-173.5876z" fill="#fff"/><path d="m636.76388 445.4176c-48.06545.25739-88.7155 1.88799-118.85268 5.46543-110.19953 59.72748-160.51146 142.9804-179.65551 279.69946l53.07437 11.21289c17.19953-58.28798 43.12618-220.1567 245.43382-296.37778z" fill="#009240"/><path d="m353.82916 742.54291 41.48771 5.23268 44.7786-40.68858c-24.36071 98.31406-51.83884 181.71795 18.4025 279.12813l-53.0272 27.49296c-26.50066-49.94405-64.20915-124.55955-51.64161-271.16519z" fill="#009240"/><path d="m426.44372 1011.2525 36.24083-20.03099 13.03833-40.2162c42.79274 139.56169 131.83841 201.67909 217.68727 246.49489v5.0215c-86.41766-21.1327-189.40556-71.0849-266.96643-191.2692z" fill="#009240"/><path d="m524.32747 802.28273-25.16672-14.07842v-19.74715l20.68156-5.17039c12.82497-127.17027 99.1706-191.80752 184.75455-194.54845 53.3753 1.86882 157.50544 27.64853 183.74955 196.05166l17.02471 2.97392v18.98487l-20.0507 18.33718" fill="#1f1a18"/><path d="m525.07499 796.86316-13.58006-7.16379c81.53312-21.51654 267.40209-20.3562 384.13512-.87212l-9.93587 6.6343" fill="#fff"/><path d="m523.89141 791.00753v84.3459c45.20436 4.52542 249.7975 5.74012 363.06747 10.72451v-94.61599c-125.61471-14.68104-201.81802-18.42615-363.06747-.45442z" fill="#005299"/><path id="a" d="m556.02313 800.5353-19.86645 20.81892.95307 35.36713 19.7085 14.05417 18.89513-14.48935.6167-35.19493z" fill="#fff"/><use id="b" fill="#fff" transform="translate(59.024876 -3.083389)" xlink:href="#a"/><use id="c" fill="#fff" transform="translate(67.900313 -2.242579)" xlink:href="#b"/><use id="d" fill="#fff" transform="translate(59.179172 .124588)" xlink:href="#c"/><use id="e" fill="#fff" transform="translate(55.44154 1.495053)" xlink:href="#d"/><use fill="#fff" transform="translate(54.159172 4.308965)" xlink:href="#e"/><ellipse id="f" cx="585.49152" cy="1053.3739" fill="#fff" rx="33.914673" ry="15.502435"/><use id="g" fill="#fff" transform="translate(77.613307 .792871)" xlink:href="#f"/><use fill="#fff" transform="translate(76.644242)" xlink:href="#g"/><use fill="#fff" transform="translate(231.5463)" xlink:href="#f"/><path d="m874.31092 281.61796c126.69878 60.25251 240.19158 143.49098 312.30388 373.02777l-15.7541 15.88623c9.015 73.49198 33.2084 212.40998-73.0634 370.53794l-25.4675-1.3145c-101.18738 132.1684-208.63479 162.9357-269.63937 170.4277-40.46477 4.9695-82.8022 4.8372-100.69784 2.7192l.3036-17.7322c29.70401-15.6538 183.95934-86.4003 225.09303-263.67824l41.05843 3.4768c25.17399-49.51204 22.28141-130.63277-16.53285-247.25325l36.52996-15.35411c-58.81038-167.02386-194.07713-212.01977-250.39097-230.23056 73.67115-35.60268 144.12397-85.53222 136.25713-160.51278z" fill="#1f1a18"/><path d="m879.60867 289.8386c34.92073 45.87132 70.92265 91.13506 88.23211 164.40379-62.51135-12.08726-135.51777-16.06767-209.77771-15.56512 28.25365-18.05308 128.31307-62.01663 121.5456-148.83867z" fill="#d9251c"/><path d="m965.36914 418.79883c3.61107 14.36242 8.25026 30.38762 11.86133 44.41797-24.33825-4.26519-54.66986-8.84588-81.38672-11.58594 77.19366 38.68305 118.28165 96.23911 142.89845 155.33008-1.1518.41755-2.265.85127-3.2676 1.33008 1.0508.73158 2.653 1.07537 4.3594 1.30273 1.0801 2.6468 2.1334 5.29494 3.1504 7.94531-.9391.19339-3.3479.38432-4.1074 1.23047.4549 1.0464 2.431 1.71257 5.2851 1.92774 13.7946 36.83102 21.825 73.73778 28.752 106.55078 23.3532-7.75812 44.2534-18.89658 63.6289-33.94727-48.4578-155.08466-112.9727-233.40666-171.17386-274.50195zm157.51956 292.56054c-20.4094 12.39887-42.5123 21.37918-64.7442 28.31055.4427 5.54333.8005 10.96037 1.1192 16.32031-.4147-.0127-.9893-.0458-1.3203-.0469-1.1745-.004-1.8093.0691-1.8125.24609-.01.33732 1.4823 1.62404 2.4238 1.86914.2359.0614.5563.21697.8437.33008.1815 3.21987.3468 6.41565.4844 9.57031-2.5658.0569-4.5818.17431-4.5859.42188 0 .26342 1.7629 1.38489 3.0449 1.82422.4479.15349 1.0671.43364 1.6582.69531.1825 4.607.323 9.14949.4141 13.61914-3.0072-.33295-4.8729-.57202-5-.17187-.1459.45943 2.4833 2.26333 5.082 3.66992.2318 15.15682-.062 29.51956-.8145 43.16797-.056-.0235-.237-.0702-.2734-.0899-.6201-.33554-1.183-.49216-1.6445-.49218-.7692-.00004-1.2578.43509-1.2715 1.20703-.01.38712 1.2664 1.44343 2.9902 2.65429-4.982 81.565-26.5924 137.15812-52.0898 181.29104l40.6601 11.9492c63.0566-98.17498 80.675-200.13562 74.836-316.34563z" fill="#fff"/><path d="m985.01303 1013.9398c-60.98819 88.8947-107.36214 137.34-243.26917 188.7798 60.03238-16.4805 172.44939-41.3523 282.40334-174.3062z" fill="#fff"/><path d="m767.06498 445.3295c48.06545.25739 84.7071.74273 114.84428 4.32017 108.4553 59.72748 165.25804 147.76451 184.40204 279.74924l-52.0154 12.39647c-14.45857-60.40597-43.92657-223.2349-247.23092-296.46588z" fill="#009240"/><path d="m1050.8366 742.14647-41.3996 5.62912-45.49497-41.4984c13.35065 43.38341 24.08856 89.94188 25.74532 133.52491 2.01123 52.90789-8.29808 103.14235-43.43144 146.41304 17.66103 9.47803 35.02108 19.97936 53.21408 27.64866 29.49591-51.17737 63.93421-128.45937 51.36661-271.71733z" fill="#009240"/><path d="m978.48635 1010.9442-35.80034-19.50245-13.30262-41.75789c-45.12744 138.17424-121.84434 193.52124-218.03966 248.00324v4.8346c106.7819-19.5583 207.49742-96.5828 267.14262-191.5775z" fill="#009240"/><path d="m715.78674 431.93879-111.48654-190.37725c41.27233-23.38783 78.53701-54.29687 72.10726-167.207784l27.39811-16.738397-1.23335-34.710151 19.11701 1.409549 1.67384-11.364491 6.34297.0881c7.9035 21.38076 12.86321 43.155822-.24487 54.114456-2.3243 1.943163-4.85893 8.471966-4.85893 8.471966l8.84573 9.34408c3.59799 15.883932-3.25136 45.479992 10.83914 47.592512l-2.49176 69.14619c-5.63449-2.27063-9.88454-3.1568-11.21289-1.12129-3.62777 20.86978-2.34232 40.71598 1.9934 59.9267l10.96372.49835-.24918 16.69475-9.21949 2.36717c-.49421 54.75426-12.18945 99.00111-18.28417 151.86554z" fill="#009240"/><g fill="#e5a03b"><path d="m526.02617 762.65428 42.99125-7.40013 1.49765-22.55279-41.7579 5.37391z"/><path d="m529.81433 732.26088 42.72697-5.02152c.55581-10.70243 2.88323-18.45218 4.75722-26.95763l-41.93409 8.01681z"/><path d="m578.97236 694.73163 8.80969-25.90047-38.67451 8.3692-11.2764 24.40282c14.59461-2.81904 28.86661-5.44451 41.14122-6.87155z"/><path d="m602.05373 638.43775-12.06926 25.0195-38.23403 6.87156 17.17889-24.75521c9.70839-3.37842 21.63355-5.09427 33.1244-7.13585z"/><path d="m606.98716 632.00669-31.89106 4.84532 11.62878-12.42165 30.04102-7.31204z"/><path d="m596.41554 615.53258c17.80572-15.69385 37.41122-25.30348 57.87961-32.41964-10.66548 8.28905-21.29208 15.139-32.06724 27.48622z"/><path d="m632.49119 608.30864 25.50403-2.64291c10.40458-16.63393 20.57747-20.1103 30.87794-29.24815-27.5883 5.3047-42.85039 17.98664-56.38197 31.89106z"/><path d="m665.08701 604.43238 10.17519-.1762c2.63347-7.46965 6.39343-13.65188 9.77875-20.26227-6.72422 6.69536-14.24643 13.74311-19.95394 20.43847z"/><path d="m701.11862 602.18591-.0881-25.94452c-11.16917 4.55909-15.59168 14.38317-18.98487 26.07666z"/><path d="m574.39133 754.19699c13.63938-2.54144 28.09338-3.94243 42.90315-4.84533.30477-7.03107.31909-14.49784 1.23336-20.61466l-41.49361 3.43578z"/><path d="m622.14131 748.82158 31.97619-1.78861.44044-21.64215-31.35957 2.50405z"/><path d="m658.69999 747.14924 42.63887-.61668.26429-21.49562-41.40551.61668z"/><path d="m661.07861 720.4559c.55972-10.81857 1.32657-21.32643 2.8191-30.74579l37.35305-.52858-.61667 30.30531z"/><path d="m663.36912 684.5124 37.17687-1.49765.0881-24.40282-34.18157.79287z"/><path d="m667.92435 654.50787 33.5907-.56507-.70477-25.72428-28.0299 1.21825z"/><path d="m674.38123 623.2851 26.25286-.70478-.0881-13.655-21.31943-.0881z"/><path d="m577.82711 725.47742 40.61263-2.3635 5.28581-29.52755-39.99596 4.93342z"/><path d="m624.60652 722.48213 29.60054-2.11432 2.90719-30.39341-28.01479 2.46671z"/><path d="m585.05105 692.96969 39.37928-5.462 6.16678-24.9314-37.61735 5.81439z"/><path d="m630.24472 686.45053 28.71957-1.76194 1.93813-24.75521-24.05044 2.46671z"/><path d="m597.20841 661.34293 35.76731-4.49294 9.51446-24.66711-32.77202 4.05245z"/><path d="m638.52582 656.6738 24.75521-2.64291c.40221-8.72248 2.70668-16.35796 4.14055-24.49092l-18.32414 1.93813z"/><path d="m651.82844 625.48752 17.17888-1.58574 3.70007-13.83121-11.98117.44049z"/><path d="m614.123 630.24475 31.01008-3.61197 8.63349-15.50504-27.6624 3.87626z"/><path d="m879.63013 762.65418-43.03434-7.40012-1.49915-22.55277 41.79976 5.37391z"/><path d="m875.83818 732.26082-42.7698-5.02152c-.55637-10.70242-2.88612-18.45216-4.76199-26.9576l41.97612 8.0168z"/><path d="m826.63087 694.73161-8.81852-25.90045 38.71328 8.36919 11.2877 24.4028c-14.60924-2.81904-28.89555-5.44451-41.18246-6.87154z"/><path d="m803.52636 638.43779 12.08136 25.01947 38.27236 6.87155-17.19611-24.75518c-9.71812-3.37842-21.65524-5.09427-33.15761-7.13584z"/><path d="m798.58799 632.00673 31.92303 4.84532-11.64044-12.42164-30.07113-7.31203z"/><path d="m809.1702 615.53264c-17.82356-15.69383-37.44872-25.30345-57.93762-32.41961 10.67617 8.28905 21.31342 15.13899 32.09938 27.4862z"/><path d="m773.05839 608.30871-25.52959-2.64291c-10.41501-16.63391-20.5981-20.11028-30.90889-29.24812 27.61595 5.3047 42.89334 17.98662 56.43848 31.89103z"/><path d="m740.4299 604.43245-10.18539-.1762c-2.63611-7.46964-6.39984-13.65186-9.78855-20.26225 6.73096 6.69536 14.26071 13.7431 19.97394 20.43845z"/><path d="m704.36217 602.18598.0882-25.94449c11.18036 4.55909 15.60731 14.38316 19.0039 26.07663z"/><path d="m831.21649 754.1969c-13.65305-2.54144-28.12154-3.94242-42.94615-4.84532-.30508-7.03107-.31941-14.49783-1.2346-20.61464l41.5352 3.43578z"/><path d="m783.41865 748.8215-32.00825-1.78861-.44088-21.64213 31.39101 2.50405z"/><path d="m746.82332 747.14916-42.68161-.61668-.26456-21.4956 41.44702.61668z"/><path d="m744.44232 720.45585c-.56028-10.81856-1.3279-21.32641-2.82193-30.74576l-37.39049-.52858.61729 30.30528z"/><path d="m742.14951 684.51239-37.21414-1.49765-.0882-24.4028 34.21583.79287z"/><path d="m737.58971 654.50789-33.62437-.56507.70548-25.72425 28.058 1.21825z"/><path d="m731.12636 623.28515-26.27917-.70478.0882-13.65498 21.3408-.0881z"/><path d="m827.77727 725.47736-40.65334-2.36349-5.29111-29.52752 40.03605 4.93341z"/><path d="m780.95097 722.48208-29.63022-2.11432-2.9101-30.39338 28.04287 2.46671z"/><path d="m820.54609 692.96967-39.41876-5.462-6.17296-24.93137 37.65506 5.81438z"/><path d="m775.30711 686.45051-28.74835-1.76193-1.94008-24.75519 24.07455 2.46671z"/><path d="m808.37654 661.34294-35.80316-4.49293-9.524-24.66709 32.80487 4.05245z"/><path d="m767.01771 656.67382-24.78002-2.64291c-.40261-8.72247-2.70939-16.35794-4.1447-24.49089l18.34251 1.93812z"/><path d="m753.70176 625.48757-17.1961-1.58574-3.70378-13.83119 11.99318.44049z"/><path d="m791.44499 630.24479-31.04116-3.61196-8.64214-15.50503 27.69012 3.87626z"/></g><path d="m10.924396 934.22907h175.169894c26.0694 0 35.36513 20.03509 39.2005 28.49311l-6.87156 28.19099c-3.96436 3.47615-13.12997 8.04569-20.25363 9.14173-30.05235 4.6239-37.68772 17.7526-43.52847 43.0116v163.6086h-143.716734z" fill="#009240"/><path d="m228.83151 988.7548v143.5772c-21.778-27.3388-42.26028-59.8605-61.72938-96.4349 2.68989-14.1748 13.57784-22.1736 29.06577-25.6475 13.23446-2.9684 27.2093-7.3695 32.66361-21.4948z" fill="#009240"/><path d="m165.27393 1053.851c104.00422 196.4146 307.40897 296.2613 538.51252 296.2613 152.93123 0 428.01085-71.0721 524.88745-297.2637v259.1499c-166.3888 139.4744-342.17489 210.0632-532.79375 210.0632-156.87656 0-341.89827-48.54-530.57215-210.7338z" fill="#009240"/><path d="m1383.7221 933.9816h-175.9123c-26.0694 0-34.3753 19.78763-38.2106 28.24565l6.6241 28.68592c3.9643 3.47615 13.1299 8.04569 20.2536 9.14173 30.0523 4.6239 37.6877 17.7526 43.5285 43.0116v163.6086h143.7167z" fill="#009240"/><path d="m1165.815 988.7548v143.5772c21.778-27.3388 42.2602-59.8605 61.7293-96.4349-2.6898-14.1748-13.5778-22.1736-29.0657-25.6475-13.2345-2.9684-27.2093-7.3695-32.6636-21.4948z" fill="#009240"/><path d="m1039.1856 690.33988c-21.748 42.31569-43.75374 75.19288-59.44536 101.56054-6.4882 6.43451-9.7608 10.06726-16.49024 17.35938-16.20033 12.45494-54.14067 47.25959-75.31445 63.3125-46.72282 31.59784-77.39614 57.08339-119.13086 87.89844-72.81896 53.76626-150.75323 107.64836-224.3418 158.52146l-27.67383-35.4531c-3.26239-4.085-17.78643-14.9287-31.89453-1.4941-11.6768 11.1193-3.80869 27.469 2.11914 31.1464 3.37517 2.0938 6.47638 4.5701 15.19922 5.6055l16.32032 19.3125-72.88282 48.3399c-2.8352 3.7355-13.40756 15.2207-9.71875 30.3984 1.65977 6.8291 8.38528 13.8576 16.32227 16.5703 11.80407 4.0343 22.74927-.1908 29.27734-9.3437 3.18316-4.4631 4.14649-15.9141 4.14649-15.9141 7.47871-2.1846 13.95714-6.7428 19.55664-13.3906 6.386-1.4581 12.8162-3.3432 19.77929-10.5723l22.59571-12.1563 19.29297 23.3458c4.20467 9.5964 20.26493 21.8702 34.36718 9.0214 14.04487-12.7966 6.02607-42.6132-18.44726-36.2734l-11.39258-14.5957c67.47693-47.1793 140.32226-95.2974 217.1582-151.1504 62.36771-45.33585 127.29592-96.06854 194.57227-153.13476 21.88054-18.28918 32.78944-39.64741 40.84184-58.51172 14.8681-34.83116 13.9914-67.76993 15.1836-100.40234z" fill="#1f1a18"/><path d="m482.94682 1202.8741c2.50802 23.9274-17.95534 30.654-32.61704 23.7966-13.41369-6.2737-12.66259-24.4578-2.00501-36.5706l73.82241-48.3158 21.61597 25.0421c-6.12899 4.2262-12.27126 8.2531-18.56357 10.0293-6.97164 5.5172-14.04774 10.8371-22.48808 13.5801-6.58823 6.3791-13.17645 11.3476-19.76468 12.4383z" fill="#95342a"/><path d="m515.27835 1089.2292c-4.64084-5.122-9.88847-10.5426-18.67652-8.8097-12.8409 2.532-13.62232 16.2231-9.82593 23.8938 3.89119 7.8622 14.79101 7.3833 18.19513 6.6758l66.82436 82.4368c2.24601 3.6786 8.64581 12.4834 19.93405 8.6588 9.36159-3.1718 12.22652-11.7519 9.90471-20.3701-2.3086-8.5692-13.35276-10.9387-20.37009-9.1572z" fill="#95342a"/><path d="m568.36923 1149.2284-20.49468-26.724c84.75849-59.65 140.3843-94.5342 223.12608-155.7409 48.32353-35.74643 94.30462-71.58536 192.43629-149.99745 24.49145-23.28601 46.41408-57.73875 67.16388-96.92683-3.7001 59.71547-23.814 96.9877-50.43547 125.36179-59.97154 50.05535-97.66069 78.45409-165.14437 130.60889-60.17885 46.5093-133.12119 96.5672-246.65173 173.4185z" fill="#f6d356"/><path d="m369.4007 691.15153c18.5449 33.3273 45.51884 84.53683 66.37541 109.08735 3.25634 3.83308 7.78538 8.37042 11.53087 11.31144 21.83853 17.03597 54.90957 45.1703 74.25729 59.61243 45.20032 33.73984 78.4533 58.49294 120.18802 89.30799 44.13736 32.58905 90.39656 64.99756 135.4738 97.66416 29.29237 21.2276 57.36586 43.5718 86.48939 62.7073l30.61308-37.6146c6.69931-4.5496 16.63789-10.5249 28.17606 1.076.68129.685 2.27158-1.9249 3.03324-1.1996 15.21621 17.665-3.54011 34.3484-18.31506 34.9454l-15.82197 18.9387s27.25117 19.0878 41.09699 28.3674c11.5905 7.7681 35.21199 22.7757 35.21199 22.7757 4.51714 4.7322 11.22728 12.4175 7.60076 27.0346-1.69233 6.8211-9.07051 15.5395-17.0075 18.2522-11.80407 4.0343-24.77474-.7704-31.58221-9.7175-7.04538-9.2597-5.45466-17.4091-5.45466-17.4091-7.47871-2.1846-11.09163-4.5625-16.69113-11.2103-6.386-1.4581-10.63591-3.0318-17.599-10.2609l-24.02847-12.7792-19.29297 23.3458c-5.61422 10.125-16.28627 20.4124-32.95763 8.0523-17.68996-13.1152-7.52372-38.0321 17.03771-35.3043l9.89493-12.2171c-67.47693-47.1793-139.26509-97.1915-216.10103-153.0445-62.36771-45.33582-127.5803-97.23644-194.85665-154.30266-41.88686-38.81076-52.28906-101.24005-57.27126-157.41901z" fill="#1f1a18"/><path d="m927.61016 1202.8741c-2.50802 23.9274 17.95534 30.654 32.61704 23.7966 13.41369-6.2737 12.66259-24.4578 2.00501-36.5706l-73.82241-48.3158-21.61597 25.0421c6.12899 4.2262 12.27126 8.2531 18.56357 10.0293 6.97164 5.5172 14.04774 10.8371 22.48808 13.5801 6.58823 6.3791 13.17645 11.3476 19.76468 12.4383z" fill="#95342a"/><path d="m895.27863 1089.2292c4.64084-5.122 9.88847-10.5426 18.67652-8.8097 12.8409 2.532 13.62232 16.2231 9.82593 23.8938-3.89119 7.8622-14.79101 7.3833-18.19513 6.6758l-66.82436 82.4368c-2.24601 3.6786-8.64581 12.4834-19.93405 8.6588-9.36159-3.1718-12.22652-11.7519-9.90471-20.3701 2.3086-8.5692 13.35276-10.9387 20.37009-9.1572z" fill="#95342a"/><path d="m842.00087 1148.7051 19.99633-25.7335c-89.33953-62.1167-141.61582-97.7173-222.06709-156.45728-48.5454-35.44452-98.19798-71.83361-193.52643-149.15648-24.49145-23.28601-49.13348-60.18057-68.47368-99.01627 4.6691 53.90108 24.60684 98.92583 51.22829 127.29992 56.29178 46.26611 94.85511 77.23808 166.37773 130.16841 56.02677 41.4626 132.50375 95.2395 246.46485 172.8952z" fill="#f6d356"/><path d="m1065.0706 572.79019c-3.1938-4.20689-6.1395-7.66738-6.5459-7.68997-.4066-.0226-5.751 1.45428-11.8768 3.28192-11.9371 3.56148-15.1838 3.82543-20.2456 1.64597l-2.1204-.91293 11.2703-3.83841c10.4688-3.5655 11.6136-3.82556 16.1028-3.65775l4.8327.18065-1.651-2.24493c-2.0734-2.81882-8.6257-8.37523-10.4777-8.88501-.8945-.2462-3.8714.60512-8.3075 2.37571-7.4083 2.95687-8.2696 3.06461-14.3461 1.79449l-3.9571-.82715 9.036-3.54387c10.0164-3.92852 13.9641-4.54712 19.8971-3.1179 9.4365 2.27319 16.1261 8.40088 20.9476 19.1878 2.5857 5.78459 3.8493 10.31989 3.4833 12.50143-.1919 1.14251-1.2991-.003-6.0417-6.25005z" fill="#1f1a18"/><path d="m1078.1256 595.07322c-3.005-1.62611-3.2397-2.20417-.8692-2.14093 1.1859.0317 2.695.48006 3.3536.99649 1.7557 1.37671 2.8303 1.17227 2.8602-.54412.048-2.72523.6983-3.47813 2.9718-3.43844 2.3135.0404 5.8142 1.6217 5.7968 2.61846-.014.84715-.7385.71691-2.145-.38604-1.7822-1.39746-2.2048-1.17829-2.2457 1.1644-.023 1.35743-.3954 2.2514-1.0324 2.48319-1.8753.68232-6.8312.25288-8.6901-.75301z" fill="#1f1a18"/><path d="m324.52337 655.14152c.009-.50534.51974-3.94341 1.13536-7.64015 1.31531-7.89877.84399-11.70116-1.94584-15.69742l-1.73089-2.47936 3.00662.34196c2.59211.29481 3.22713.1291 4.60527-1.20181 3.15252-3.04432 5.23064-12.8376 3.55821-16.76839-.36489-.85768-.0151-1.13822 1.80288-1.44656 2.4004-.4071 3.58319-1.64904 6.09168-6.39633 2.55058-4.82684 3.96315-9.4952 4.59625-15.18976.91926-8.2687.57405-8.73857-2.82963-3.85145l-2.85779 4.10333-1.40453-1.36641c-3.91712-3.81078-6.31418-12.37146-5.12723-18.31082.57532-2.8787.49746-3.2471-1.13615-5.37811-2.19396-2.86184-2.26454-5.76772-.19647-8.08878 1.93673-2.17365 3.95908-1.6641 6.02109 1.51704 1.48231 2.28684 1.51306 2.5997 1.17246 11.91717-.19241 5.26277-.12692 9.565.14578 9.5605.27258-.004 1.20374-1.11251 2.06927-2.46229 2.25019-3.50909 3.67386-3.72946 6.00954-.93022 2.33866 2.80289 3.2668 5.73397 3.61921 11.42983.34634 5.59651-1.69697 14.80333-4.80949 21.67093l-2.24156 4.94587 1.49018 2.27752c.8196 1.25262 1.48641 2.4935 1.4818 2.7575-.012.68645-4.00702.52344-5.91779-.24145-1.89276-.7577-1.80498-.93648-2.76891 5.63836-.38245 2.60898-1.45007 6.31871-2.37242 8.2439-1.80265 3.76251-2.85794 4.21944-6.43657 2.78692-.90543-.36246-1.5555-.44065-1.4446-.17384.11089.26688.97437 2.10109 1.91876 4.07609 1.86197 3.89369 2.19945 8.6472.79958 11.26237-.90053 1.6823-5.10788 6.03375-5.82183 6.0213-.27403-.005-.49105-.42215-.48224-.92744z" fill="#1f1a18"/><path d="m1114.8891 761.60557c-1.2415-2.58015-2.2294-2.83596-3.1883-.82539-.7013 1.47067-1.0199 1.59711-3 1.18999-3.0723-.63167-5.4934-2.23725-6.8764-4.56032-1.5414-2.58884-1.4816-2.81408.5481-2.06313.9397.34769 2.1731 1.48014 2.7408 2.51655 1.2903 2.35528 1.7514 2.36132 3.1259.0408.6036-1.01902 1.4621-1.84538 1.9079-1.83635 1.571.0337 4.8685 2.60445 5.4669 4.26496.911 2.52818.3516 3.51015-.7249 1.27265z" fill="#1f1a18"/><path d="m303.59437 768.94272c-3.963-3.80731-8.04192-7.28604-9.06422-7.73054-1.02231-.44455-1.85443-1.05536-1.84916-1.35748.0137-.78557 4.57311-.59838 8.00004.32842 4.21299 1.13937 8.75651 5.99738 10.19663 10.9024.64405 2.19349.84444 3.88893.49914 4.22238-.3453.33346-3.47023-2.22243-7.78243-6.36518z" fill="#1f1a18"/><path d="m331.65782 837.23607c-3.38203-3.11978-7.01594-6.5042-8.07541-7.52093-1.71604-1.64667-2.07247-1.76076-3.2646-1.0449-1.58601.95242-1.67342 1.51424-.43512 2.79652 2.37572 2.46014-.52548 4.32244-5.52406 3.54585-5.61071-.87175-6.61086-3.16237-3.12624-7.15996l1.54882-1.77672-.84668-5.41154c-2.07663-13.27319-6.54521-25.78842-12.46427-34.90906-1.21683-1.87503-2.13331-3.48135-2.03659-3.56977.29192-.26685 13.66816 3.60696 14.08711 4.07969.21396.24141-1.08494.24638-2.8864.0109-1.80146-.23535-3.27808-.27363-3.28138-.0848-.004.1886.50871 1.09878 1.13784 2.02265 4.29717 6.31092 9.95505 21.55742 11.74324 31.64522l.95901 5.4103 3.43406.46451c7.64987 1.03471 12.97522 5.27207 14.72791 11.71891 1.63347 6.00824 1.02571 5.98511-5.69724-.21662z" fill="#1f1a18"/><path d="m321.24142 869.30951c6.61941-3.00173 7.0941-10.92743 1.08859-18.17573l-1.82602-2.20393-6.42113 1.01453c-19.17449 3.0295-18.08066 2.965-21.99079 1.2979-1.93921-.82673-3.4441-1.57685-3.34417-1.6669.36587-.32965 27.99252-4.80835 29.4238-4.77004 2.22686.0595 6.80147 2.42634 9.11169 4.71414 2.69795 2.67181 4.96731 7.40726 5.29475 11.04862.52455 5.83325-3.09448 9.31974-10.09381 9.72433l-3.9086.22591z" fill="#1f1a18"/><path d="m299.80602 891.93068c-1.54157-.71625-2.48571-1.49391-2.15755-1.77708 1.12454-.97022 25.50176-4.16411 28.76137-3.76823 2.87612.34935 8.7444 2.35633 8.25931 2.82477-.50641.48904-26.98891 4.16744-29.41372 4.08558-1.48954-.0504-3.94177-.66459-5.44941-1.36504z" fill="#1f1a18"/><path d="m1075.4885 906.37719c-2.8745-1.99305-5.6325-5.00594-6.8925-7.52946-1.5872-3.179-2.1802-12.85905-.786-12.82884.4729.008 4.0852.62107 8.0274 1.3574 3.9421.73632 7.3928 1.12227 7.668.85758.2752-.26465.4705-3.39489.434-6.95613l-.067-6.47493-7.1575-1.91844c-6.6921-1.79363-7.3464-2.11002-10.0619-4.86535-1.5974-1.62078-2.7855-3.06171-2.6401-3.20206.1452-.14028 5.3468.87046 11.559 2.24613 6.2121 1.37568 11.6994 2.35402 12.1939 2.17412.6866-.24983.9058-1.55126.9272-5.50506.045-8.37091.2953-8.03546-7.5366-10.11836-6.3253-1.68223-6.9619-1.99768-9.7309-4.82192-1.6296-1.66206-2.8764-3.10538-2.7708-3.20735.4474-.43209 17.1396 3.4145 19.4594 4.48437 5.4049 2.49258 7.8387 7.57471 7.7166 16.1131-.039 2.75066-.3134 6.35262-.609 8.00446-.5219 2.91612-.595 2.99651-2.521 2.77099-1.7817-.20857-1.972-.0732-1.8701 1.3319.2751 3.78733-.03 17.60967-.3962 17.96332-.2225.21485-2.4001-.12528-4.839-.75578-2.439-.63061-4.5476-1.03716-4.686-.90357-.1383.13359.3137 1.24038 1.0047 2.45953 1.1104 1.95926 1.1712 2.5675.5239 5.23663-1.2115 4.99543-3.6081 6.40498-6.9504 4.08772zm.1276-8.18856c.3805-1.28305.707-3.10636.7254-4.05182.036-1.56063-.1759-1.72266-2.2394-1.75868l-2.2727-.0397.3347 2.80602c.3301 2.76667 1.4455 5.35401 2.3147 5.36919.2449.004.7567-1.04199 1.1373-2.32504z" fill="#1f1a18"/><path d="m334.16641 944.54882c-4.6995-1.26687-8.10049-4.21744-10.16681-8.82036-1.92429-4.28647-1.86962-4.34442 5.18062-5.49454 3.66579-.59803 6.48675-1.37343 6.67326-1.8344.34197-.8452-2.60009-9.99042-3.37392-10.48753-.24995-.16057-3.31041.10266-6.80102.585l-6.34663.87689-3.85826-1.62236-3.85827-1.62235 4.03048-.60648c2.21677-.33355 7.23325-1.03068 11.14771-1.5492l7.11722-.94279-.3007-2.08207c-.38955-2.69773-3.30523-9.50816-4.22332-9.86486-.39041-.15176-3.24767.0267-6.34938.39654-5.48853.65438-5.7432.62786-9.51378-.99083-2.13089-.91475-3.79672-1.73821-3.70175-1.82985.0949-.0917 3.77756-.71119 8.18356-1.37677 8.54223-1.29029 11.71035-1.00787 15.17991 1.35306 2.19241 1.49184 4.93372 5.89244 6.62487 10.63488 1.77156 4.96789 1.83998 6.59.27675 6.56271-1.92028-.0335-1.92567.51909-.0434 4.45584 1.70462 3.56554 4.22217 11.27778 3.81112 11.67474-.10305.0996-1.69664.43999-3.54125.75659-1.8446.3166-3.48284.70013-3.64052.8524-.1576.15226.42533 1.15361 1.29557 2.22518 1.64323 2.02353 2.46346 5.06414 2.05608 7.62196-.26237 1.64748-2.40317 2.05989-5.85798 1.1286zm-.83923-5.65633c.0176-1.00906-.21698-2.52565-.52133-3.37018-.44033-1.22196-.8847-1.47822-2.17585-1.25463-2.36912.41011-2.42332.92855-.40009 3.82663 2.15227 3.08293 3.05334 3.31513 3.09727.79818z" fill="#1f1a18"/><path d="m811.22188 1234.1032c-2.04444-1.0922-3.8357-2.098-3.98063-2.2353-.14493-.1374.56739-1.9128 1.58286-3.9455l1.84638-3.6958 3.67587 2.0798c2.02178 1.144 3.79976 2.4053 3.95109 2.803.22856.6007-2.7564 7.1145-3.21315 7.0119-.0799-.018-1.81798-.9261-3.86242-2.0181z" fill="#1f1a18"/><path d="m571.87242 1252.2168c-1.43463-1.8845-2.74609-3.8048-2.91435-4.2674-.3067-.8427 5.86052-6.1855 6.73285-5.8325.73858.2988 6.08895 7.3377 6.07747 7.9953-.0126.7202-5.96849 5.6398-6.74981 5.5755-.29571-.025-1.71153-1.5863-3.14616-3.4709z" fill="#1f1a18"/><path d="m558.18628 1311.4785c-6.62463-2.0441-11.44562-5.722-13.59838-10.3742-1.12548-2.4323-1.27615-3.6346-.96779-7.7231.40901-5.4234 2.42813-10.2787 6.91321-16.6241 4.06315-5.7484 7.09705-7.6682 3.97141-2.513-2.14238 3.5336-3.47776 9.4825-2.76602 12.3222 1.37128 5.4711 6.59285 8.9767 15.33034 10.292 5.13021.7723 7.37498.7015 15.03158-.4738 3.39775-.5215 4.06022-.8413 4.63397-2.237 1.01292-2.4637.25165-10.9439-1.45131-16.1726l-1.49639-4.5939 3.9927-4.3059c2.19602-2.3682 4.17822-4.3026 4.40501-4.2987.22674 0 .73761 1.684 1.1353 3.7335.88843 4.5784 2.37376 7.2229 4.78865 8.5255 2.21275 1.1938 13.55754 3.1914 15.47623 2.7254.76237-.1853 2.27953-1.787 3.44616-3.6383 2.15984-3.4273 3.11814-3.772 3.07158-1.1046-.0391 2.24 2.03988 6.1497 3.72909 7.0126.79784.4077 5.66717.9867 10.82069 1.2867 5.15353.3 16.66605 1.2288 25.58345 2.064l16.21333 1.5185 3.30802-2.1941c4.54949-3.0178 4.75493-3.3526 4.79433-7.8165.0538-6.13-1.99654-22.9882-2.98742-24.5597-.82112-1.3021-.68594-1.7492 1.78582-5.9039 2.22225-3.7353 2.77677-4.3156 3.28112-3.4331 2.87914 5.0373 4.08123 6.574 5.747 7.3463 1.05913.4911 1.92012 1.2112 1.91333 1.6002-.0214 1.2284-3.21947 7.6853-3.80144 7.6751-.30612-.01-.60327 3.5772-.66035 7.9611-.067 5.1259-.38342 8.4682-.88723 9.3642-.4309.7662-.56256 1.3984-.29267 1.4049.26999.01 4.17985-1.7654 8.68868-3.9373 14.04885-6.7677 22.9651-7.8227 27.74804-3.2834 1.96142 1.8615 2.21681 2.4873 2.40324 5.8893.13653 2.4914-.14993 4.8016-.82919 6.6866l-1.03775 2.88 1.70263-.3328c.93652-.1832 3.95801-.574 6.71448-.8687 7.88423-.8426 10.47766-1.9019 14.14607-5.7776l3.20985-3.3914-.0609 3.4886-.0609 3.4885 2.6569.037c1.46136.016 4.33125-.3264 6.37774-.7704 4.07967-.8848 5.14949-1.8301 7.51201-6.6373.79603-1.6197 1.61511-2.942 1.82029-2.9385.20516 0 .69743 1.585 1.09396 3.5142.63457 3.0875.97192 3.6178 2.81602 4.4262 1.15231.5054 2.79656.931 3.65385.946 1.59691.028 1.71563-.1997 3.31474-6.3516.24473-.9415.54496-1.71.66717-1.7078.12222 0 1.29192 1.1914 2.59928 2.6431 2.138 2.3737 2.73423 2.6751 5.92687 2.9961 3.86935.3889 9.16954-1.0401 9.19466-2.4791.008-.4386-1.94706-8.233-4.34374-17.321l-4.35771-16.5237 2.21064-5.0192c1.21581-2.7605 2.21672-4.808 2.22428-4.5498.007.2583 2.1294 9.4405 4.7153 20.4048 4.442 18.8348 5.65876 22.7658 7.05389 22.7902 1.75232.031 27.9238-5.8509 29.78032-6.6925 3.45752-1.5674 3.908-2.4057 2.70787-5.0398-.56441-1.2387-1.74176-3.2253-2.61632-4.4144l-1.59005-2.1619-1.81194 3.0479c-3.1039 5.2209-9.09575 6.9398-13.57254 3.8936-2.71329-1.8463-4.11547-6.2132-3.9294-12.238.29512-9.556 3.89414-16.8328 8.27208-16.725 7.01583.1729 16.61493 10.6518 20.12738 21.9723 1.84562 5.9483 2.99308 16.5298 2.31091 21.3101-.46352 3.2478-.66266 3.555-3.37706 5.2108-3.62231 2.2095-6.41 3.046-17.77289 5.3334-5.00438 1.0074-9.72869 2.2076-10.49838 2.6671-3.22497 1.925-7.89458.3712-10.11508-3.3661-.72774-1.2247-1.56152-2.2309-1.85289-2.236-.29136-.01-1.00543 1.5263-1.58671 3.4031-1.09707 3.542-2.43262 4.6891-6.83246 5.8682-1.63255.4375-5.69591-.365-8.71353-1.7208-.8284-.3722-1.17693-.03-1.62864 1.6033-.56683 2.0487-.62775 2.0785-4.51157 2.1958-2.69961.082-5.38347-.3379-8.53924-1.3349l-4.60218-1.4542-4.2764 1.8814c-5.89418 2.593-10.60921 4.0614-14.56228 4.5349l-3.34699.4009.42335-1.9398c.2328-1.067.30516-1.942.16076-1.9445-.1444 0-2.19348.9195-4.55359 2.049-2.36004 1.1295-5.42117 2.316-6.80243 2.6366-3.61465.8393-64.35694.4219-70.96353-.4878-2.91629-.4014-13.37593-1.2547-23.24361-1.8962-14.58243-.9478-18.2319-1.364-19.4939-2.2228-1.90419-1.2956-3.82771-5.099-4.31548-8.5327-.20042-1.4108-.58403-2.5688-.85251-2.5734-.26849-.01-1.95702 1.7948-3.7523 3.9989-3.12328 3.8347-3.38127 4.0055-5.98124 3.9601-4.48569-.078-9.26557-1.3326-10.81214-2.8372-1.22819-1.1949-1.53871-1.2703-2.04656-.4974-.32928.5012-.61055 1.3329-.62512 1.8486-.0399 1.4278-3.68235 8.5331-6.5706 12.8184-2.38913 3.5449-2.81046 3.8712-5.8242 4.5104-4.86487 1.0316-17.09487 1.0343-20.43265.01zm146.74163-24.0857c7.65936-.6127 14.42583-2.5109 14.45278-4.0544.0208-1.1926-1.88685-3.2643-4.10197-4.4544-1.85304-.9957-8.55886-1.0211-12.49088-.048-4.24077 1.0502-9.5123 3.377-13.22636 5.8378-2.60456 1.7259-2.83006 2.0383-1.78245 2.4699 1.67837.6912 10.08859.813 17.14888.248zm123.15877-34.3228c1.21051-.3895 2.20829-1.1299 2.21729-1.6457.0203-1.163-3.7408-3.1895-5.99494-3.2302-2.63391-.046-5.63497 4.2767-3.57446 5.1502 1.38803.5885 5.10013.45 7.35211-.2743z" fill="#1f1a18"/><path d="m1037.3348 1317.1854c.2984-3.0218.6961-5.7332.8838-6.0254.3366-.5241 13.2519-6.4762 14.0233-6.4627.2185 0 .091 2.5635-.2825 5.6882l-.68 5.6812-4.787 2.1087c-2.6328 1.1598-5.8923 2.6476-7.2435 3.3064l-2.4566 1.1978z" fill="#fff"/><path d="m597.91659 1313.185-2.80421-3.6481 2.06246-1.7103c4.89261-4.0571 4.66921-4.0408 7.67972-.5612 1.48165 1.7126 2.70139 3.4061 2.7106 3.7633.0149.5775-4.18816 4.2807-6.109 5.3826-.44455.2551-1.84441-1.0208-3.53957-3.2263z" fill="#1f1a18"/><path d="m611.43094 1315.0615c-1.43069-1.7738-2.59745-3.4432-2.59279-3.71.0165-.9478 7.03259-5.7125 7.56272-5.1359 1.70461 1.8536 4.92548 6.1599 4.91824 6.5757-.008.4635-6.49132 5.5439-7.03232 5.5106-.13999-.012-1.42516-1.4669-2.85585-3.2404z" fill="#1f1a18"/><path d="m285.21968 1315.1395c-.18401-.3097 1.52827-2.0979 3.80511-3.9738 2.27678-1.8759 4.14549-3.6093 4.15267-3.852.0105-.2426-2.02932-.9915-4.52549-1.6643-12.42506-3.3484-24.9243-10.121-32.17382-17.4331-1.68505-1.6997-3.25612-3.086-3.4912-3.0809-.23513.01-1.15082 1.1467-2.03487 2.5366-3.16633 4.9786-10.4445 10.144-15.78418 11.2022-9.88562 1.9592-23.34932-3.1906-27.86847-10.6593-4.88582-8.0748-3.69778-16.6918 3.81232-27.6506 3.09185-4.5116 10.89382-12.7149 11.49795-12.0894.17087.1771-1.41184 2.7887-3.51722 5.8038-7.85488 11.2487-8.68352 19.448-2.66616 26.3804 4.86783 5.6079 13.38391 8.9256 21.06091 8.2046 5.294-.4972 6.41578-1.0404 7.56585-3.6632 1.50577-3.4342 3.64381-11.6238 3.68747-14.1249.0348-1.9963.41652-2.4464 4.2813-5.0488 2.33362-1.5714 4.59104-2.9838 5.01638-3.1386.78877-.287.78596-.1976-.23951 7.6674-.40472 3.104-.3603 3.2174 2.23193 5.6912 4.07568 3.8894 11.37936 9.3704 16.87513 12.6639 8.70325 5.2155 22.19677 10.1442 28.0524 10.2464 1.75107.031 2.6829.3207 2.65997.8281-.0334.7343-17.34452 13.3233-20.57347 14.9613-.82338.4178-1.64016.5041-1.825.193z" fill="#fff"/><path d="m1108.0301 1359.6557c-1.1058-1.1449.508-3.0815 11.6489-13.9799 13.6983-13.4 12.7463-11.7165 14.5768-25.7781 1.5487-11.8966 2.9515-14.5502 10.2793-19.4448 3.2402-2.1643 12.6553-9.8765 14.8071-12.1289 1.4149-1.481 1.4184-1.5239.5572-7.023-2.3362-14.9161-.054-24.9859 5.6311-24.8469.9481.025 3.2549 1.0018 5.1259 2.1747 4.1742 2.6164 7.1641 2.7608 10.6881.5162 1.339-.8529 2.5813-1.5481 2.7605-1.5449.1794 0 .263 3.6133.186 8.0228l-.1399 8.0172-2.9407 3.6535c-1.6175 2.0094-5.9399 7.8819-9.6056 13.0501l-6.6646 9.3967.8579 3.946c.9748 4.4831 1.0708 8.3976.2188 8.9039-.3174.1885-1.0368-1.7711-1.5985-4.3549-.5617-2.5837-1.207-5.0102-1.4339-5.3921-.2533-.4262-1.7372.5712-3.8421 2.5824-4.8959 4.678-9.7244 8.4774-14.9284 11.7469-2.4875 1.5626-4.7335 3.3224-4.9913 3.9106-.2577.5883-.9122 5.7047-1.4546 11.3698-1.0248 10.7055-1.7745 13.4187-4.7462 17.1769-2.631 3.3272-7.7336 6.2004-14.9425 8.4137-6.6646 2.046-9.2326 2.4579-10.0493 1.6121zm59.0045-80.937c1.8453-2.6332 3.3585-4.9875 3.3627-5.2319.018-1.0787-2.8435-3.0442-4.4735-3.0727-1.451-.025-1.9679.3756-2.7331 2.1208-.9502 2.1671-1.4343 9.7458-.673 10.5342.7761.8036 1.1729.4213 4.5169-4.3504z" fill="#fff"/><path d="m332.12652 1348.0034c-13.01551-1.5988-24.5849-5.5243-32.98444-11.1912-3.7071-2.501-3.73801-2.5468-2.95473-4.372 2.95741-6.8907 19.47823-42.021 20.72764-44.0757.84708-1.3931 2.48035-3.2084 3.62957-4.0342 3.63219-2.6102 10.72501-6.7047 11.04329-6.3753.27714.287-9.07528 21.0964-18.28 40.6736-2.349 4.9959-3.41898 7.9425-3.05101 8.4019 1.06788 1.3334 12.11041 6.7803 15.82154 7.8043 6.72876 1.8566 7.27042 1.698 12.78164-3.7428 6.56306-6.4792 13.74298-9.8428 20.74926-9.7205 3.30804.057 3.39132.015 4.38034-2.2685 1.88059-4.3412 3.78917-6.0446 10.3728-9.2569 7.69303-3.7536 10.26847-3.968 14.44976-1.2026 3.37488 2.2319 9.66896 9.1851 10.13712 11.1984.50439 2.1695-1.24517 4.3059-6.03329 7.3678-6.4262 4.1094-11.18002 5.4069-17.67742 4.8254-2.91874-.2613-6.84642-.9332-8.72819-1.4932-4.32547-1.2872-13.80147-2.1532-15.22103-1.391-.95332.5117-.83448.8821 1.08692 3.3879 2.89529 3.7759 2.77094 5.4085-.69532 9.131-4.89452 5.2565-11.337 7.3431-19.55445 6.3336zm54.40038-23.975c.64135-.6255-7.61575-8.4845-9.42747-8.973-1.93504-.5216-3.1843.404-3.69337 2.7368-.71174 3.2615.25533 5.2907 2.95374 6.1978 2.42118.8139 9.34515.8399 10.1671.039z" fill="#fff"/><path d="m1060.3254 1356.7388c-1.2115-4.1482-2.3781-7.5453-2.592-7.549-.214 0-.9356 1.6912-1.6038 3.7665-1.3814 4.2913-2.6816 5.5251-7.6935 7.3012-4.5296 1.6052-6.8929 1.54-7.7931-.2152-.3859-.7521-.8891-4.6299-1.1182-8.6175-.5022-8.7352.2195-11.7011 4.2653-17.5371 3.3084-4.7717 11.2965-12.8829 12.6641-12.8591.7229.013 2.1799 3.4156 5.3273 12.4428 2.3827 6.834 4.5842 12.7077 4.8923 13.0527.8236.9228 5.2003-1.5061 5.4488-3.0237.1273-.7775 1.5609-1.9701 3.8071-3.1673 3.8971-2.077 9.2757-6.2992 11.9876-9.4101 1.4601-1.6751 1.6065-2.1771 1.0526-3.6096-.3538-.9152-3.2972-8.4636-6.5411-16.7743l-5.8977-15.1102.2744-6.5104c.1506-3.5808.6014-7.653 1.0013-9.0495.3997-1.3964 5.4081-10.3577 11.1297-19.914l10.4027-17.3753.01 9.5186.01 9.5188-6.5596 10.7376c-3.6078 5.9055-7.1532 11.7507-7.8789 12.9892l-1.3193 2.2517 1.5337 4.0051c.8434 2.2027 3.7892 9.8128 6.5462 16.9113l5.0128 12.9061-.1236 6.5636c-.1087 5.7165-.3327 7.0038-1.7745 9.974-2.8988 5.9715-10.5404 13.3761-18.6428 18.0643-2.0384 1.1797-4.0286 2.762-4.4223 3.5165-.6746 1.2927-6.7467 4.7022-8.4254 4.7308-.4485.01-1.6973-3.1518-2.9759-7.5288zm-10.4462-11.3644c2.1586-.9536 4.4763-2.1434 5.1504-2.6438 1.1911-.8841 1.196-.9921.1713-3.8223-.5798-1.6018-1.3066-2.9168-1.6149-2.9222-1.2917-.023-8.8764 9.2198-8.9048 10.8512-.01.5914 1.5279.1585 5.198-1.4629z" fill="#fff"/><path d="m934.28098 1366.6961c.009-.5353.3778-2.9437.81884-5.3519.93386-5.0994 1.04672-5.1995 8.7899-7.7775 2.94039-.979 5.80298-1.9537 6.36126-2.1658.93119-.3536.92134.093-.11851 5.3929l-1.13386 5.7783-7.21074 2.5421c-3.96588 1.3981-7.28114 2.5452-7.36718 2.5488-.0862.01-.14879-.4314-.13944-.9669z" fill="#fff"/><path d="m454.92345 1357.7198c-3.53814-1.2083-6.57671-2.3457-6.75231-2.5274-.1756-.1818.13079-.7652.68082-1.2964.5501-.5311 2.05362-2.2066 3.34127-3.7233s2.81077-2.7493 3.38469-2.7393c1.41001.024 13.29087 3.964 13.96651 4.6308.7044.6954-5.98901 8.0335-7.23408 7.9309-.52456-.043-3.84869-1.0672-7.3869-2.2753z" fill="#fff"/><path d="m1015.5715 1391.7978c-.6618-1.1287-15.313-50.7838-15.92179-53.9609-.56015-2.9235-.42829-4.4722.94049-11.0468.8757-4.2056 1.8068-8.0349 2.0694-8.5096.3048-.5513 1.0256.9299 1.9949 4.0993 1.257 4.1103 7.4431 24.7071 12.2515 40.792 2.306 7.7142 2.4926 11.7692.9464 20.5699-1.4017 7.9778-1.703 9.0419-2.2809 8.0561z" fill="#fff"/><path d="m799.36128 1394.1534c.014-.8038 3.2997-9.0078 3.80681-9.505.45545-.4466 15.22913-2.2548 15.56669-1.9053.10846.1123-.76613 2.554-1.94355 5.4261l-2.14071 5.2219-6.24232.6465c-7.70191.7978-9.05913.815-9.04692.1158z" fill="#fff"/><path d="m399.10571 1397.6356c-5.97446-2.5263-10.91724-4.6474-10.98392-4.714-.24228-.2416 3.13588-10.6066 3.59936-11.0438.39069-.3685 21.42598 7.9001 22.23875 8.7419.35476.3673-3.15693 11.6903-3.61181 11.6459-.20887-.021-5.26792-2.1039-11.24238-4.63z" fill="#fff"/><path d="m913.102 1421.8605c-.15107-.2619-1.07951-4.2889-2.06319-8.9489-.98374-4.6601-2.71626-12.7099-3.85016-17.8884-4.10944-18.768-4.89327-22.8799-4.84866-25.4353.0409-2.3426 3.45184-14.6395 4.62315-16.667.57818-1.0007 1.28755 1.8181 6.13645 24.3842 5.40398 25.1496 6.17732 28.2466 7.05705 28.2619.43026.01 1.9856-.3874 3.45631-.8776 1.4707-.4903 3.36753-.8792 4.21518-.8644 1.6223.029 11.62942-4.6645 14.35267-6.7307 1.47315-1.1177 1.60244-1.6038 1.68503-6.335.10828-6.2031 2.03564-13.2277 4.74985-17.3121 2.05026-3.0851 2.86122-3.6011 5.58509-3.5535 5.13513.09 8.46898 11.6086 5.88322 20.3274-.38994 1.3151-.599 2.505-.46455 2.6443.42387.4389 13.42322-4.2438 16.34394-5.8878 1.5361-.8645 4.22747-2.8172 5.98086-4.339l3.18811-2.7673.52489-6.6678.5249-6.6678-4.18673-13.9039c-4.9764-16.5265-5.26241-19.0237-3.20079-27.9561.83006-3.5966 1.71102-6.9015 1.95773-7.3441.26145-.4692 1.09007 1.3701 1.98741 4.4119.84643 2.8691 3.28867 10.9786 5.42727 18.0212 3.97563 13.0916 4.66538 17.8182 3.15205 21.5986l-.60962 1.5227 4.26461-.011c3.46082-.01 4.52328.2289 5.63773 1.2634 1.2668 1.1757 1.3416 1.6738.9654 6.4267-.7889 9.966-6.42702 17.807-19.54698 27.1845-5.52261 3.9472-15.72535 9.2486-17.73201 9.2136-.7063-.013-2.72132.5152-4.4778 1.1724-4.60244 1.7219-7.83408 1.5252-9.72899-.5925l-1.52109-1.6998-2.36508 2.1494c-5.31048 4.8261-10.87984 8.1455-19.73115 11.7597-4.2409 1.7317-5.57823 2.0384-6.44712 1.4786-.67858-.4372-1.51147-.5027-2.18556-.1723-1.75973.8629-4.44239 1.3169-4.73942.8021zm38.86037-32.9559c2.33513-2.5678 2.57227-4.7938.65892-6.1844-1.99413-1.4492-2.70982-1.2689-4.20547 1.0593-1.59722 2.4862-1.70704 3.9848-.4308 5.8762 1.26455 1.8742 1.65741 1.8 3.97735-.7511z" fill="#fff"/><path d="m493.76577 1421.5554c-5.67923-1.1304-16.56058-4.8205-17.43527-5.9125-.44497-.5557-.43079-1.3204.0439-2.5129.37738-.9427.56616-1.8382.4195-1.9902-.14674-.1519-1.35319.01-2.68115.3491-3.52779.9136-7.0139.7082-14.14953-.8337-5.57383-1.2044-13.42608-3.297-14.02245-3.7367-.11447-.084.89179-3.6921 2.23609-8.0171 1.34423-4.3251 2.31238-8.0002 2.15134-8.167-.16098-.1667-1.11338.3558-2.11635 1.1611-3.06283 2.4591-4.65146 3.0133-7.29261 2.5435-3.34338-.5946-8.31961-3.3103-9.50191-5.1852-.89767-1.4236-.87327-1.7427.33155-4.3427 2.08353-4.4965 6.85798-11.2139 9.16217-12.8905 3.11652-2.2679 10.05963-4.0434 17.00841-4.3493 5.36698-.2363 6.13119-.1414 6.47536.8044.21457.5898-1.01392 6.7306-2.73009 13.6462-1.71611 6.9156-3.1229 12.9037-3.12612 13.3068-.00074.4032.90321 1.0414 2.01436 1.4183 3.72155 1.2622 14.33643 3.4491 16.96467 3.495 4.02503.07 8.68327-1.5004 12.36909-4.1706 3.89233-2.8195 4.33915-2.9227 4.30547-.9925-.0292 1.6727-1.28308 3.6047-4.40225 6.7833-1.40433 1.431-2.03977 2.5235-1.67653 2.8824 1.67316 1.6533 16.40605 5.3483 21.69326 5.4405 4.90408.086 6.21439-.5938 8.43606-4.3747 2.22489-3.7864 5.97384-7.2545 7.80731-7.2225 3.28391.058 10.53412 5.5132 10.45057 7.8642-.12452 3.5052-6.63668 11.0019-11.50805 13.248-6.02723 2.7791-21.66855 3.6582-31.22945 1.7552zm-40.05143-40.0397c1.0796-3.992 1.03753-4.0821-1.9287-4.1339-4.11263-.072-11.38639 2.2196-10.374 3.2681.63478.6573 8.79179 3.5066 10.22323 3.5709 1.06468.049 1.48154-.4942 2.07947-2.7051z" fill="#fff"/><path d="m870.74117 1435.1383c.19743-.4889 5.85798-7.8494 12.57904-16.3568 12.57016-15.9111 14.32301-18.612 13.52126-20.8342-.98485-2.7295-2.15392-3.0414-4.88326-1.3029-5.28487 3.3662-7.27653.862-7.06937-8.8888.22005-10.3491 3.08465-14.4491 8.28502-11.857 2.58819 1.2902 5.6947 5.9368 7.01901 10.4988 3.3475 11.5316.6139 29.7311-5.5246 36.7812-3.36148 3.8608-10.1455 8.2723-15.91201 10.3471-6.55829 2.3599-8.47245 2.7449-8.01509 1.6126z" fill="#fff"/><path d="m467.93405 1430.8887c-.5108-.2912-3.23798-1.2268-6.06042-2.0793s-5.12885-1.7139-5.12535-1.9141c.013-.7478 6.67687-8.0386 7.30302-7.9902.3585.028 3.83841 1.1437 7.73306 2.4798l7.08118 2.4295-3.43893 3.8481c-3.4624 3.8743-5.11052 4.584-7.49256 3.2262z" fill="#fff"/><path d="m812.96106 1436.4489c.11414-9.9048-.20164-10.6375-2.83143-6.5674-2.62434 4.062-5.14778 5.1567-10.90366 4.7306-5.79658-.4291-6.43455-1.1087-5.84847-6.2298.6693-5.8488 2.75415-12.8146 4.6696-15.6021 3.9304-5.7198 21.26479-15.4824 21.20848-11.9446-.007.4297.44842 6.5579 1.01171 13.6181.56328 7.0601 1.02098 13.0475 1.01717 13.3054-.0178 1.023 5.85621.5666 7.16157-.5568.72086-.6202 3.00468-1.4558 5.07518-1.8567 4.2601-.825 10.49713-3.1642 12.99536-4.874 1.34844-.923 1.83014-1.9666 2.47222-5.3568.9833-5.1914 2.83862-9.0236 4.87422-10.0677 1.91827-.984 7.53031-.399 10.25078 1.0686 1.71748.9265 1.92282 1.3425 1.87978 3.8086-.057 3.2645-2.47568 9.918-4.87425 13.4087-4.38837 6.3861-21.37276 15.2422-33.59939 17.5197-2.01346.3749-4.08927 1.0446-4.61289 1.4879-.52362.4434-2.99495.9701-5.49184 1.1705l-4.53982.3644.0858-7.4266zm-2.1808-15.839c1.33879-.3448 1.60151-.8151 1.78183-3.1894.32825-4.3221-.27481-4.7544-4.06744-2.915-3.35993 1.6295-7.69931 4.9621-7.71614 5.9258-.0112.6452 7.6584.782 10.00167.1836z" fill="#fff"/><path d="m660.23036 1449.161c.0207-.5059.90761-3.0151 1.97093-5.5759 2.24942-5.4172 2.40161-6.4811.86837-6.0694-.60468.1624-3.57889.9799-6.60934 1.8168-14.00096 3.8661-31.21332 6.1252-44.51869 5.8434-7.69265-.1631-17.9748-1.3761-18.78634-2.2165-.22584-.2339 4.08191-33.2761 4.84871-37.1911.68202-3.4821-.84827-2.5336-6.22269 3.857-13.08967 15.5644-20.29108 20.9324-32.41635 24.1632-5.81744 1.5501-18.37167 1.636-23.79517.163-5.51779-1.4988-4.77826-2.064 8.71421-6.6614 13.94449-4.7515 19.2931-7.3525 19.8005-9.6289.21235-.9526 1.2192-7.8905 2.23738-15.4174 2.35817-17.4327 2.79042-19.4303 4.85768-22.4506 2.59447-3.7906 8.60138-10.9304 8.91918-10.6013.316.3272-3.67124 30.3182-4.86693 36.6075-.42351 2.2281-1.47429 5.2347-2.33495 6.6812-.86072 1.4467-1.37105 2.6337-1.13406 2.6378.93654.016 6.76062-4.9921 17.0739-14.683 10.84324-10.1888 15.94834-13.8032 18.8423-13.3404 1.26576.2025 1.38254.545 1.24794 3.66-.14626 3.3849-4.31901 35.1622-4.97808 37.9103-.49668 2.0708 1.19913 2.5082 12.11133 3.1236 18.12294 1.0218 43.14977-2.2937 54.75271-7.2534 1.99957-.8548 3.79987-1.384 4.00059-1.1762.47649.4934-11.851 23.929-13.4184 25.5094-.90747.915-1.19311.9867-1.16473.2923z" fill="#fff"/><path d="m761.27549 1447.6594c-.16328-3.872-.72045-15.911-1.2381-26.7535-1.22474-25.6521-1.19014-26.0012 3.45904-34.8662 2.02952-3.8698 3.79343-6.9291 3.91984-6.7983.12634.1309.78903 12.3222 1.47249 27.0919.97347 21.0355 1.08697 27.6738.5238 30.6375-.71872 3.7821-6.53883 17.7512-7.38966 17.7363-.2478 0-.58412-3.1759-.74741-7.0477z" fill="#fff"/><path d="m696.46089 1452.7207c-4.11468-.9501-4.62154-1.9932-1.43433-2.9515 2.91471-.8763 11.06988-4.0118 18.95972-7.2894l5.8675-2.4376.20678-21.7909.20678-21.7908 3.45004-6.4117c6.01385-11.1761 5.61799-11.6498 5.77154 6.9081.23805 28.7769.21035 29.1854-2.38931 35.2549-1.24279 2.9016-2.26585 5.3624-2.2735 5.4684-.008.1061 1.74956-.7075 3.90481-1.8078 4.87592-2.4891 10.87823-6.6775 15.09758-10.535 2.96429-2.71 3.19849-3.127 2.92921-5.214-.72267-5.599-1.3904-21.1339-1.0342-24.0584.45559-3.7402 6.97577-17.7655 7.63655-16.4268.54362 1.1012 1.47873 22.9479 1.32648 30.9893-.20849 11.0119-4.44616 20.5456-12.64848 28.4561-7.44158 7.1769-16.06793 12.0679-24.52908 13.9076-4.63635 1.0081-16.15237.8601-21.04809-.2705z" fill="#fff"/><path d="m678.46822 1468.349c4.36462-2.367 8.38941-5.4781 8.40721-6.4982.008-.4504-1.3103-1.505-2.92928-2.3436-2.9408-1.5232-2.94341-1.5274-2.78273-4.5676.2127-4.0251 3.25003-9.8594 6.95723-13.3643 1.58505-1.4985 3.04502-2.5556 3.24438-2.3491.84379.8737-1.43918 5.9525-3.71571 8.266-1.34335 1.3652-2.44747 2.7673-2.45355 3.1159-.006.3484 1.38507 1.2524 3.09145 2.0087 3.51969 1.56 3.78115 2.4793 2.0391 7.1695-2.37949 6.4064-5.77873 9.1592-12.34359 9.9962l-2.82014.3595z" fill="#fff"/><path d="m1069.9316 598.75586c-3.6999-.0389-6.1739.53593-16.0097 3.72461-4.2923 1.39183-10.3222 2.70577-15.2852 4.51758.3574.85797.7101 1.71564 1.0606 2.57422 2.4821.34535 5.2547.38376 7.2871.5957 2.8966-.24692 30.5436-8.77112 31.5976-9.74219.8226-.75791-3.6313-1.61722-8.6504-1.66992zm.1836 11.55469c-9.5515.95237-17.6373 4.4155-26.8007 7.16992-.055.0164-.2572.0424-.336.0586.4041 1.05302.754 2.10496 1.1485 3.15821 4.1356.31802 10.1866-.34804 16.5898-2.43555 5.0065-1.63219 9.2502-2.96689 9.4316-2.96289.1812.003 1.4241 1.70976 2.7618 3.79101 2.4866 3.8681 5.1714 11.15807 4.7734 12.96094-.1441.65252-2.7492 1.86958-7.4492 3.47656-4.8458 1.65681-7.3 2.81088-7.4434 3.50196-.3275 1.57675 6.8228 9.09034 10.502 11.03515 2.5171 1.3305 3.8653 1.65273 6.1972 1.48633 4.0496-.28886 5.6405-1.7312 5.1602-4.68164-.5432-3.33737-1.8799-5.69401-3.9102-6.89648-.995-.58926-1.8047-1.25851-1.8047-1.48828 0-.22982 1.8629-.80806 4.1368-1.28516 2.274-.47709 4.2823-1.01131 4.4629-1.18555.1805-.17424-.5105-2.98884-1.5352-6.2539-1.9311-6.15209-4.9408-12.01961-7.7871-15.17969-1.8827-2.09018-5.9061-4.21103-8.0977-4.26953zm3.502 29.17578c.3808.0217.6539.27459 1.0801.77148.8034.93643 2.2229 5.16488 2.2089 6.58008 0 .25789-.2149.45921-.4726.44531-.5796-.0309-3.8314-3.01422-5.3145-4.87695-1.078-1.35386-1.062-1.39969.7735-2.30859.8555-.42368 1.3438-.63308 1.7246-.61133zm-14.4238 116.50195c.047.78721.1102 1.59755.1543 2.38086.8704.33711 1.8551.81384 2.5351 1.30664 3.1062 2.25085 5.2776 2.67343 17.0645 3.32227 6.5283.35932 14.085.73755 16.7949.84179l4.9277.18946-1.5918-1.29883c-.8757-.71387-3.2105-2.07543-5.1894-3.02735-3.2031-1.54073-4.6629-1.79868-13.2813-2.35156-9.8031-.62893-17.4347-1.24554-21.414-1.36328zm2.6406 11.91797c-.7853.003-1.2894.0373-1.9785.0527.043.99169.053 1.93462.092 2.91993 1.1153.49116 2.3001 1.06059 3.2011 1.5957 2.3342 1.3864 2.9448 1.4584 10.6973 1.26562l8.2227-.20507 1.9707 2.77929c2.4406 3.44231 5.444 9.90124 5.414 11.64258-.022 1.26673-.1127 1.25376-3.5859-.49219-3.4763-1.74754-3.8824-1.80275-16.4649-2.24609-3.7293-.1314-6.6916-.44519-9.0195-.70313.023 1.1459.094 2.363.1113 3.5.2219.12013.4404.2542.6602.36719 4.3881 2.25624 7.4333 2.77287 22.7207 3.84961l7.3066.51367 2.7754 8.90039c1.5261 4.89463 2.9204 9.16407 3.0996 9.48829.7388 1.33582 1.326-2.23713 1.4864-9.05469.1936-8.2303-1.0532-14.88596-3.7598-20.07227-3.0184-5.78414-9.9397-11.33822-16.5625-13.29101-1.7155-.50585-10.2343-.8372-16.3867-.81055zm-2.1621 63.27734c-.061 1.10524-.1459 2.16981-.2129 3.26563 1.6676 1.17269 3.7635 2.49311 5.5605 3.49414 1.083.60326 8.5585 2.46307 16.6114 4.13281 8.0529 1.66975 15.2033 3.06451 15.8906 3.09961.9971.0508.7535-.39432-1.211-2.19726-4.4348-4.07029-8.8231-5.71483-22.625-8.48633-6.71-1.34745-12.7628-2.78268-14.0136-3.3086z" fill="#1f1a18"/></g></svg>