<?xml version="1.0" encoding="UTF-8" standalone="no"?>
<!-- Created with Inkscape (http://www.inkscape.org/) -->

<svg
   width="700"
   height="700"
   viewBox="0 0 185.20834 185.20834"
   version="1.1"
   id="svg12"
   inkscape:version="1.2.2 (b0a8486541, 2022-12-01)"
   sodipodi:docname="logo-inkscape.svg"
   inkscape:export-filename="logo-for-youtube-black.001.svg"
   inkscape:export-xdpi="96"
   inkscape:export-ydpi="96"
   xmlns:inkscape="http://www.inkscape.org/namespaces/inkscape"
   xmlns:sodipodi="http://sodipodi.sourceforge.net/DTD/sodipodi-0.dtd"
   xmlns="http://www.w3.org/2000/svg"
   xmlns:svg="http://www.w3.org/2000/svg">
  <sodipodi:namedview
     id="namedview14"
     pagecolor="#ffffff"
     bordercolor="#000000"
     borderopacity="0.25"
     inkscape:showpageshadow="2"
     inkscape:pageopacity="0.0"
     inkscape:pagecheckerboard="0"
     inkscape:deskcolor="#d1d1d1"
     inkscape:document-units="mm"
     showgrid="true"
     inkscape:zoom="0.77593294"
     inkscape:cx="179.13919"
     inkscape:cy="370.52171"
     inkscape:window-width="1920"
     inkscape:window-height="1052"
     inkscape:window-x="0"
     inkscape:window-y="0"
     inkscape:window-maximized="1"
     inkscape:current-layer="layer1">
    <inkscape:grid
       type="xygrid"
       id="grid240"
       originx="0"
       originy="0" />
  </sodipodi:namedview>
  <defs
     id="defs9" />
  <g
     inkscape:label="Layer 1"
     inkscape:groupmode="layer"
     id="layer1">
    <ellipse
       style="display:none;fill:#555555;fill-opacity:1;stroke-width:0.277232"
       id="path294"
       cx="92.97995"
       cy="92.887245"
       rx="92.091438"
       ry="91.685921" />
    <rect
       style="fill:#0f0f05;fill-opacity:1;stroke-width:0.264583"
       id="rect2908"
       width="186.1915"
       height="185.74568"
       x="-0.39705557"
       y="-0.45614126"
       inkscape:label="rect2908" />
  </g>
  <g
     inkscape:groupmode="layer"
     id="layer2"
     inkscape:label="Layer 2">
    <path
       fill="#25c2a0"
       d="m 30.91738,49.890799 c 0,-14.022916 11.377083,-25.4 25.4,-25.4 h 76.2 8.46667 c 4.68312,0 8.46666,3.783542 8.46666,8.466667 v 84.666664 c 0,4.68313 -3.78354,8.46667 -8.46666,8.46667 v 16.93333 c 4.68312,0 8.46666,3.78355 8.46666,8.46667 0,4.68313 -3.78354,8.46667 -8.46666,8.46667 h -8.46667 -76.2 c -14.022917,0 -25.4,-11.37709 -25.4,-25.4 z m 16.933333,84.666671 c 0,4.68312 3.783542,8.46666 8.466667,8.46666 h 67.73333 V 126.0908 H 56.31738 c -4.683125,0 -8.466667,3.78354 -8.466667,8.46667 z M 96.375296,99.57955 c -0.978958,0.97896 -1.640417,1.11125 -1.957917,1.11125 -0.3175,0 -0.978958,-0.13229 -1.957916,-1.11125 -1.005417,-0.97896 -2.116667,-2.64583 -3.122084,-5.00062 -1.640416,-3.836461 -2.8575,-9.075211 -3.227916,-15.054798 h 16.668747 c -0.39687,5.979587 -1.5875,11.218337 -3.227917,15.054798 -1.00542,2.35479 -2.11667,4.02166 -3.12208,5.00062 z m 11.297714,-2.61937 c 1.93145,-4.841881 3.175,-10.874381 3.54541,-17.436048 h 8.22854 c -1.24354,7.381877 -5.66208,13.678957 -11.77395,17.436048 z m 0,-43.338756 c 6.13833,3.757084 10.55687,10.054167 11.77395,17.436042 h -8.22854 c -0.37041,-6.535208 -1.61396,-12.567708 -3.54541,-17.436042 z m 20.61103,21.669375 a 33.866666,33.866666 0 1 0 -67.733327,0 33.866666,33.866666 0 1 0 67.733327,0 z m -58.922702,4.233333 h 8.228541 c 0.370417,6.535207 1.613959,12.567707 3.545417,17.436048 C 74.996963,93.203089 70.578421,86.906009 69.361338,79.524132 Z m 8.228541,-8.466666 h -8.228541 c 1.243542,-7.381875 5.662083,-13.678958 11.773958,-17.436042 -1.931458,4.841875 -3.175,10.874375 -3.545417,17.436042 z M 92.433004,51.002049 c 0.978959,-0.978958 1.640417,-1.11125 1.957917,-1.11125 0.3175,0 0.978958,0.132292 1.957917,1.11125 1.005415,0.978959 2.116665,2.645834 3.122075,5.000625 1.640427,3.836459 2.857507,9.075209 3.227927,15.054792 H 86.030088 c 0.396875,-5.979583 1.5875,-11.218333 3.227916,-15.054792 1.005417,-2.354791 2.116667,-4.021666 3.122084,-5.000625 z"
       id="path40"
       style="stroke-width:0.264583"
       inkscape:label="path40" />
  </g>
</svg>
