<?xml version="1.0" standalone="no"?>
<!DOCTYPE svg PUBLIC "-//W3C//DTD SVG 20010904//EN"
 "http://www.w3.org/TR/2001/REC-SVG-20010904/DTD/svg10.dtd">
<svg version="1.0" xmlns="http://www.w3.org/2000/svg"
 width="1024.000000pt" height="1024.000000pt" viewBox="0 0 1024.000000 1024.000000"
 preserveAspectRatio="xMidYMid meet">
<metadata>
Created by potrace 1.14, written by Peter Selinger 2001-2017
</metadata>
<g transform="translate(0.000000,1024.000000) scale(0.100000,-0.100000)"
fill="#000000" stroke="none">
<path d="M2399 10236 c-2 -2 -29 -6 -59 -10 -30 -3 -66 -8 -80 -10 -14 -3 -41
-7 -60 -10 -30 -5 -106 -23 -175 -42 -11 -3 -24 -6 -30 -7 -5 -2 -14 -5 -20
-8 -5 -4 -23 -10 -40 -14 -43 -12 -60 -18 -139 -55 -25 -11 -50 -20 -55 -20
-6 0 -11 -5 -11 -12 0 -6 -3 -9 -6 -6 -3 4 -33 -9 -66 -28 -33 -19 -64 -34
-69 -34 -5 0 -9 -4 -9 -9 0 -5 -8 -11 -17 -14 -19 -6 -70 -36 -89 -52 -7 -5
-42 -32 -79 -60 -142 -106 -340 -318 -440 -470 -11 -16 -18 -33 -17 -37 1 -5
-1 -8 -6 -8 -4 0 -16 -17 -27 -37 -11 -21 -22 -40 -25 -43 -3 -3 -18 -33 -35
-67 -16 -35 -34 -63 -38 -63 -5 0 -5 -4 -2 -10 3 -5 -1 -23 -10 -39 -20 -40
-85 -221 -79 -221 2 0 0 -8 -5 -17 -5 -10 -11 -32 -14 -50 -3 -17 -8 -36 -11
-42 -4 -6 -9 -34 -12 -63 -3 -29 -8 -56 -10 -59 -2 -4 -7 -37 -11 -75 -11 -92
-10 -6761 0 -6844 4 -36 10 -78 13 -95 2 -16 5 -37 6 -45 0 -8 5 -21 11 -28 5
-7 7 -15 4 -18 -3 -3 4 -36 15 -72 10 -37 21 -74 23 -82 2 -8 4 -15 5 -15 1 0
3 -9 4 -20 3 -20 51 -142 79 -200 8 -16 20 -43 28 -60 15 -31 83 -150 109
-190 8 -12 24 -37 35 -54 10 -17 23 -31 27 -31 4 0 8 -7 8 -15 0 -9 7 -18 15
-21 8 -4 15 -10 15 -15 0 -13 43 -61 155 -174 103 -102 120 -118 190 -170 22
-17 42 -33 43 -37 2 -5 8 -8 13 -8 5 0 30 -15 56 -34 27 -18 71 -46 98 -61 28
-15 54 -31 60 -36 5 -5 17 -9 26 -9 10 0 19 -4 21 -9 3 -9 187 -89 223 -96 11
-3 31 -9 45 -14 25 -10 102 -32 129 -37 7 -1 34 -7 60 -13 25 -6 58 -12 74
-13 15 -1 27 -5 27 -8 0 -3 15 -6 33 -8 17 -2 1540 -6 3382 -8 2269 -3 3361
-1 3385 6 19 6 49 13 65 15 17 3 68 24 115 47 151 74 271 219 326 393 13 42
18 90 18 160 0 82 -8 180 -14 180 -1 0 -3 8 -5 17 -6 32 -85 188 -95 188 -6 0
-10 6 -10 13 0 17 -94 107 -157 151 -29 20 -55 36 -57 36 -2 0 -21 8 -42 17
-22 9 -42 18 -46 19 -5 1 -9 2 -10 3 -2 2 -14 5 -28 8 -40 8 -55 11 -55 13 0
2 -53 7 -94 9 -13 1 -22 4 -19 7 4 3 3 18 -2 33 -4 16 -4 34 0 41 4 6 4 27 0
46 -4 19 -4 36 0 39 4 3 4 20 0 39 -4 19 -4 40 0 47 5 7 5 22 0 33 -4 12 -4
30 0 41 4 11 4 31 1 45 -4 14 -4 43 -1 65 3 22 3 57 -1 77 -3 20 -3 42 1 48 4
7 4 27 0 46 -4 19 -4 36 0 39 4 3 4 20 0 39 -4 19 -4 40 0 47 5 7 5 22 0 33
-4 12 -4 30 0 41 4 11 4 31 1 45 -4 14 -4 43 -1 65 3 22 3 57 -1 77 -3 20 -3
42 1 48 4 7 4 27 0 46 -4 19 -4 34 0 34 4 0 4 18 0 40 -4 22 -4 40 -1 40 9 0
7 43 -2 57 -10 17 7 24 66 29 56 4 60 4 127 23 137 39 304 174 365 296 17 33
33 62 36 65 6 5 10 17 34 123 14 60 15 418 12 3355 -3 2821 -6 3337 -17 3337
-1 0 -3 8 -5 17 -6 32 -85 188 -95 188 -6 0 -10 6 -10 13 0 17 -94 107 -157
151 -29 20 -55 36 -57 36 -2 0 -21 8 -42 17 -22 9 -42 18 -46 19 -5 1 -9 2
-10 4 -2 1 -10 3 -18 5 -8 2 -28 7 -45 11 -28 8 -6687 18 -6696 10z m3024
-1279 c17 1 43 2 57 3 31 2 180 -8 240 -15 25 -4 65 -8 89 -10 24 -3 52 -7 62
-10 11 -4 32 -8 47 -10 15 -2 56 -11 92 -20 36 -9 76 -18 90 -21 27 -5 86 -22
110 -31 8 -3 20 -7 25 -8 15 -4 127 -45 150 -55 31 -14 95 -39 98 -39 1 0 49
-24 107 -54 140 -73 174 -91 180 -97 3 -3 39 -27 80 -54 69 -45 179 -126 206
-151 6 -5 33 -28 59 -50 78 -65 226 -216 289 -296 33 -41 65 -78 71 -84 44
-41 209 -312 277 -455 35 -74 117 -276 122 -302 2 -7 6 -20 9 -28 10 -27 48
-174 52 -202 2 -15 6 -31 9 -36 3 -5 8 -24 10 -43 3 -19 7 -45 10 -59 4 -27
11 -75 23 -160 9 -72 10 -446 0 -530 -8 -76 -15 -127 -21 -157 -3 -11 -8 -43
-12 -70 -5 -26 -9 -50 -9 -53 -1 -3 -5 -18 -9 -35 -68 -269 -149 -477 -268
-684 -26 -46 -48 -88 -48 -92 0 -5 -4 -9 -10 -9 -5 0 -10 -7 -10 -15 0 -8 -4
-15 -8 -15 -5 0 -14 -10 -19 -22 -11 -24 -118 -170 -163 -223 -169 -199 -342
-354 -545 -490 -50 -33 -92 -62 -95 -65 -11 -11 -252 -134 -330 -168 -113 -50
-392 -137 -470 -148 -34 -5 -51 -8 -96 -18 -19 -4 -82 -13 -159 -22 -26 -3
-252 -15 -280 -15 -45 0 -254 12 -270 15 -11 2 -49 8 -85 12 -36 4 -67 9 -70
9 -3 1 -23 5 -45 9 -80 14 -290 69 -299 77 -6 5 -17 9 -26 9 -37 0 -338 132
-475 209 -111 62 -313 207 -419 301 -84 76 -212 208 -274 284 -36 45 -68 83
-71 86 -14 11 -134 193 -179 272 -43 75 -92 171 -135 268 -28 61 -97 254 -97
271 0 9 -3 19 -7 23 -4 3 -8 15 -10 24 -1 10 -9 45 -18 78 -15 55 -30 130 -41
199 -2 17 -7 44 -10 60 -25 143 -25 531 1 710 10 76 15 103 25 150 6 28 13 59
15 70 31 175 157 497 272 693 24 41 43 78 43 83 0 5 5 9 10 9 6 0 10 7 10 15
0 8 4 15 8 15 5 0 14 11 20 25 7 14 16 31 22 38 6 7 34 43 63 82 28 38 62 81
75 95 12 14 33 39 45 57 12 18 32 38 44 44 13 7 21 14 18 17 -7 7 150 156 250
237 89 72 261 195 271 195 3 0 18 9 33 19 44 32 328 172 369 182 19 5 158 55
167 61 6 3 26 9 45 14 50 11 50 11 53 14 2 2 15 5 57 14 14 4 34 8 45 11 41
10 112 24 155 30 25 4 56 9 70 11 40 7 119 14 204 18 43 3 81 8 84 11 4 3 8 3
9 -2 2 -5 18 -7 36 -6z m-2787 -6401 c7 -3 16 -1 19 5 4 6 13 6 23 0 10 -6 23
-6 34 0 10 5 18 6 18 2 0 -4 11 -8 25 -8 14 0 25 2 25 5 0 7 78 3 96 -4 7 -3
16 -1 19 5 4 6 13 6 23 0 10 -6 23 -6 34 0 10 5 18 6 18 2 0 -4 11 -8 25 -8
14 0 25 2 25 5 0 7 78 3 96 -4 7 -3 16 -1 19 5 4 6 13 6 23 0 10 -6 23 -6 34
0 10 5 18 6 18 2 0 -4 11 -8 25 -8 14 0 25 2 25 5 0 7 78 3 96 -4 7 -3 16 -1
19 5 4 6 13 6 23 0 10 -6 23 -6 34 0 10 5 18 6 18 2 0 -4 11 -8 25 -8 14 0 25
2 25 5 0 7 78 3 96 -4 7 -3 16 -1 19 5 4 6 13 6 23 0 10 -6 23 -6 34 0 10 5
18 6 18 2 0 -4 11 -8 25 -8 14 0 25 2 25 5 0 7 78 3 96 -4 7 -3 16 -1 19 5 4
6 13 6 23 0 10 -6 23 -6 34 0 10 5 18 6 18 2 0 -4 11 -8 25 -8 14 0 25 2 25 5
0 7 78 3 96 -4 7 -3 16 -1 19 5 4 6 13 6 23 0 10 -6 23 -6 34 0 10 5 18 6 18
2 0 -4 11 -8 25 -8 14 0 25 2 25 5 0 7 78 3 96 -4 7 -3 16 -1 19 5 4 6 13 6
23 0 10 -6 23 -6 34 0 10 5 18 6 18 2 0 -4 11 -8 25 -8 14 0 25 2 25 5 0 7 78
3 96 -4 7 -3 16 -1 19 5 4 6 13 6 23 0 10 -6 23 -6 34 0 10 5 18 6 18 2 0 -4
11 -8 25 -8 14 0 25 2 25 5 0 7 78 3 96 -4 7 -3 16 -1 19 5 4 6 13 6 23 0 10
-6 23 -6 34 0 10 5 18 6 18 2 0 -4 11 -8 25 -8 14 0 25 2 25 5 0 7 78 3 97 -4
7 -3 13 -1 13 4 0 6 9 6 23 2 22 -9 75 -7 84 2 3 3 16 1 29 -4 15 -6 26 -6 30
1 4 8 9 8 17 0 7 -7 16 -7 29 0 12 6 18 6 18 0 0 -7 8 -7 23 -2 12 5 31 5 42
1 11 -4 25 -3 32 2 7 5 14 5 18 -2 4 -7 12 -7 26 0 12 7 19 7 19 1 0 -7 8 -7
23 -2 12 5 31 5 42 1 11 -4 25 -3 32 2 7 5 14 5 18 -2 4 -7 12 -7 26 0 12 7
19 7 19 1 0 -7 8 -7 23 -2 12 5 31 5 42 1 11 -4 25 -3 32 2 7 5 14 5 18 -2 4
-7 12 -7 26 0 12 7 19 7 19 1 0 -7 8 -7 23 -2 12 5 31 5 42 1 11 -4 25 -3 32
2 7 5 14 5 18 -2 4 -7 12 -7 26 0 12 7 19 7 19 1 0 -7 8 -7 23 -2 12 5 31 5
42 1 11 -4 25 -3 32 2 7 5 14 5 18 -2 4 -7 12 -7 26 0 12 7 19 7 19 1 0 -7 8
-7 23 -2 12 5 31 5 42 1 11 -4 25 -3 32 2 7 5 14 5 18 -2 4 -7 12 -7 26 0 12
7 19 7 19 1 0 -7 8 -7 23 -2 12 5 31 5 42 1 11 -4 25 -3 32 2 7 5 14 5 18 -2
4 -7 12 -7 26 0 12 7 19 7 19 1 0 -7 8 -7 23 -2 12 5 31 5 42 1 11 -4 25 -3
32 2 7 5 14 5 18 -2 4 -7 12 -7 26 0 12 7 19 7 19 1 0 -7 8 -7 23 -2 12 5 31
5 42 1 11 -4 25 -3 32 2 7 5 14 5 18 -2 4 -7 12 -7 26 0 12 7 19 7 19 1 0 -7
8 -7 23 -2 12 5 31 5 42 1 11 -4 25 -3 32 2 7 5 14 5 18 -2 4 -7 12 -7 26 0
12 7 19 7 19 1 0 -7 8 -7 23 -2 12 5 31 5 42 1 11 -4 25 -3 32 2 7 5 14 5 18
-2 4 -7 12 -7 26 0 12 7 19 7 19 1 0 -7 8 -7 23 -2 12 5 31 5 42 1 11 -4 25
-3 32 2 7 5 14 5 18 -2 4 -7 12 -7 26 0 12 7 19 7 19 1 0 -7 8 -7 23 -2 12 5
31 5 42 1 11 -4 25 -3 32 2 7 5 14 5 18 -2 4 -7 12 -7 26 0 12 7 19 7 19 1 0
-7 8 -7 23 -2 12 5 31 5 42 1 11 -4 25 -3 32 2 7 5 14 5 18 -2 4 -7 12 -7 26
0 12 7 19 7 19 1 0 -7 9 -7 25 -1 16 6 25 6 25 0 0 -5 6 -7 13 -4 8 3 32 6 54
7 37 2 41 0 38 -20 -1 -13 2 -23 6 -23 5 0 4 -11 -1 -25 -6 -15 -6 -27 0 -30
6 -3 6 -15 0 -30 -5 -14 -6 -25 -2 -25 9 0 8 -103 -2 -118 -3 -6 -2 -13 4 -17
6 -4 7 -12 1 -24 -6 -10 -6 -23 -1 -31 5 -8 5 -21 0 -30 -5 -9 -5 -22 0 -30 5
-8 5 -21 -1 -31 -5 -10 -6 -20 -1 -23 8 -5 7 -80 -2 -102 -3 -7 -1 -16 4 -19
6 -3 6 -15 0 -30 -5 -14 -6 -25 -2 -25 9 0 8 -103 -2 -118 -3 -6 -2 -13 4 -17
6 -4 7 -12 1 -24 -6 -10 -6 -23 -1 -31 5 -8 5 -21 0 -30 -5 -9 -5 -22 0 -30 5
-8 5 -21 -1 -31 -5 -10 -6 -20 -1 -23 8 -5 7 -80 -2 -102 -3 -7 -1 -16 4 -19
6 -3 6 -15 0 -30 -5 -14 -6 -25 -2 -25 9 0 6 -75 -3 -90 -3 -6 -2 -10 2 -10
10 0 9 -58 -1 -67 -7 -7 -1465 -7 -1472 0 -4 3 -17 2 -30 -3 -14 -6 -26 -6
-29 0 -3 6 -15 6 -30 0 -15 -6 -27 -6 -30 0 -3 6 -15 6 -30 0 -15 -6 -27 -6
-30 0 -3 6 -15 6 -30 0 -15 -6 -27 -6 -30 0 -3 6 -15 6 -30 0 -15 -6 -27 -6
-30 0 -3 6 -15 6 -30 0 -15 -6 -27 -6 -30 0 -3 6 -15 6 -30 0 -15 -6 -27 -6
-30 0 -3 6 -15 6 -30 0 -15 -6 -27 -6 -30 0 -3 6 -15 6 -30 0 -15 -6 -27 -6
-30 0 -3 6 -15 6 -30 0 -15 -6 -27 -6 -30 0 -3 6 -15 6 -30 0 -15 -6 -27 -6
-30 0 -3 6 -15 6 -30 0 -15 -6 -27 -6 -30 0 -3 6 -15 6 -30 0 -15 -6 -27 -6
-30 0 -3 6 -15 6 -30 0 -15 -6 -27 -6 -30 0 -3 6 -15 6 -30 0 -15 -6 -27 -6
-30 0 -3 6 -15 6 -30 0 -15 -6 -27 -6 -30 0 -3 6 -15 6 -29 0 -13 -5 -27 -6
-30 -2 -8 8 -103 5 -116 -3 -6 -3 -10 -2 -10 4 0 6 -11 6 -30 1 -16 -5 -30 -5
-30 -1 0 5 -18 5 -40 1 -22 -4 -40 -4 -40 1 0 4 -13 4 -30 -1 -17 -5 -32 -5
-35 0 -3 5 -16 5 -30 0 -15 -6 -25 -6 -25 0 0 5 -12 5 -30 0 -17 -5 -30 -5
-30 0 0 5 -13 5 -30 0 -16 -5 -30 -5 -30 -1 0 5 -18 5 -40 1 -22 -4 -40 -4
-40 1 0 4 -13 4 -30 -1 -17 -5 -32 -5 -35 0 -3 5 -16 5 -30 0 -15 -6 -25 -6
-25 0 0 5 -12 5 -30 0 -17 -5 -30 -5 -30 0 0 5 -13 5 -30 0 -16 -5 -30 -5 -30
-1 0 5 -18 5 -40 1 -22 -4 -40 -4 -40 1 0 4 -13 4 -30 -1 -17 -5 -32 -5 -35 0
-3 5 -16 5 -30 0 -15 -6 -25 -6 -25 0 0 5 -12 5 -30 0 -17 -5 -30 -5 -30 0 0
5 -13 5 -30 0 -17 -5 -30 -5 -30 -1 0 5 -18 5 -40 1 -22 -4 -40 -4 -40 1 0 4
-13 4 -30 -1 -17 -5 -32 -5 -35 0 -3 5 -16 6 -28 2 -24 -9 -56 -8 -81 1 -8 3
-18 2 -21 -3 -3 -6 -15 -6 -30 0 -15 6 -27 6 -30 0 -3 -6 -15 -6 -30 0 -15 6
-27 6 -30 0 -3 -6 -15 -6 -30 0 -15 6 -27 6 -30 0 -3 -6 -15 -6 -30 0 -15 6
-27 6 -30 0 -3 -6 -15 -6 -30 0 -15 6 -27 6 -30 0 -3 -6 -15 -6 -30 0 -15 6
-27 6 -30 0 -3 -6 -15 -6 -30 0 -15 6 -27 6 -30 0 -3 -6 -15 -6 -30 0 -15 6
-27 6 -30 0 -3 -6 -15 -6 -30 0 -15 6 -27 6 -30 0 -3 -6 -15 -6 -30 0 -15 6
-27 6 -30 0 -3 -6 -15 -6 -30 0 -15 6 -27 6 -30 0 -3 -6 -15 -6 -30 0 -15 6
-27 6 -30 0 -3 -6 -15 -6 -30 0 -15 6 -27 6 -30 0 -3 -6 -15 -6 -30 0 -15 6
-27 6 -30 0 -3 -6 -15 -6 -30 0 -15 6 -27 6 -30 0 -3 -6 -15 -6 -30 0 -15 6
-27 6 -30 0 -3 -6 -15 -6 -30 0 -15 6 -27 6 -30 0 -3 -6 -15 -6 -30 0 -15 6
-27 6 -30 0 -3 -6 -15 -6 -30 0 -15 6 -27 6 -30 0 -3 -6 -15 -6 -30 0 -15 6
-27 6 -30 -1 -4 -5 -11 -7 -16 -3 -6 3 -29 8 -52 10 -49 5 -102 12 -102 14 0
1 -8 3 -17 5 -32 6 -188 85 -188 95 0 6 -6 10 -14 10 -8 0 -44 32 -80 71 -64
69 -143 204 -151 259 -2 14 -7 36 -10 50 -4 14 -8 45 -10 70 -2 25 -4 47 -5
50 -1 3 -1 10 0 15 1 6 3 33 6 60 2 28 5 57 7 65 27 113 76 212 142 287 52 59
172 153 196 153 9 0 22 7 29 15 7 9 15 14 17 11 3 -2 19 2 38 10 36 15 79 24
138 29 21 2 40 5 42 7 5 5 85 0 101 -6z"/>
<path d="M5382 8305 c-118 -64 -230 -216 -330 -445 -30 -71 -35 -84 -34 -92 1
-5 -3 -8 -10 -8 -6 0 -9 -3 -5 -6 3 -4 0 -22 -8 -40 -14 -33 -83 -270 -91
-309 -2 -11 -13 -65 -24 -120 -11 -55 -24 -129 -29 -165 -6 -36 -13 -83 -17
-105 -7 -48 -12 -93 -20 -209 -6 -87 -5 -89 15 -83 12 3 23 1 26 -3 3 -5 16
-5 28 -1 12 5 32 5 44 0 13 -5 25 -4 28 1 3 5 18 5 34 0 15 -4 34 -4 42 0 7 5
17 6 22 3 4 -3 34 -4 65 -4 31 1 66 1 77 1 11 -1 26 -1 33 -1 6 1 18 1 25 2
15 0 75 0 102 -1 11 -1 27 -1 35 -1 63 3 111 2 120 -4 5 -3 10 -2 10 4 0 6 11
6 30 1 17 -5 30 -5 30 0 0 5 13 5 30 0 17 -5 30 -5 30 0 0 5 13 5 30 0 17 -5
30 -5 30 0 0 5 13 5 30 0 17 -5 30 -5 30 0 0 5 13 5 30 0 17 -5 30 -5 30 0 0
5 13 5 30 0 17 -5 30 -5 30 0 0 5 13 5 30 0 17 -5 30 -5 30 0 0 5 13 5 30 0
17 -5 32 -5 35 0 3 5 16 5 30 0 27 -10 26 -13 29 57 0 24 -1 43 -4 43 -3 0 -6
15 -6 33 -1 37 -12 143 -18 172 -2 11 -7 43 -10 70 -9 67 -17 113 -22 139 -3
11 -7 35 -10 51 -5 29 -42 189 -48 210 -2 6 -4 13 -5 17 -1 4 -7 22 -12 40 -6
18 -12 40 -14 48 -13 59 -109 305 -127 328 -6 6 -8 12 -4 12 3 0 -4 17 -17 38
-13 20 -27 47 -31 60 -4 12 -12 22 -17 22 -5 0 -9 7 -9 15 0 8 -4 15 -10 15
-5 0 -10 5 -10 10 0 29 -149 190 -175 190 -7 0 -15 5 -17 10 -5 16 -90 19
-116 5z"/>
<path d="M4419 8033 c-4 -7 -35 -30 -115 -84 -71 -47 -272 -237 -341 -322
-209 -255 -363 -582 -408 -869 -6 -37 9 -54 35 -38 7 4 26 4 41 0 16 -5 29 -5
29 0 0 5 13 5 30 0 17 -5 30 -5 30 0 0 5 13 5 30 0 17 -5 30 -5 30 0 0 5 13 5
30 0 17 -5 30 -5 30 0 0 5 13 5 30 0 17 -5 30 -5 30 0 0 5 13 5 30 0 17 -5 30
-5 30 0 0 5 13 5 30 0 17 -5 30 -5 30 0 0 5 13 5 30 0 17 -5 30 -5 30 0 0 5
12 5 28 1 15 -4 35 -5 45 -3 17 4 18 8 21 120 0 23 3 42 6 42 3 0 5 17 6 38 1
66 14 172 39 327 4 22 8 51 10 65 2 14 4 27 5 30 1 3 3 10 4 15 10 62 21 113
38 180 11 44 22 90 24 102 2 12 8 33 13 45 5 13 9 28 10 33 4 27 23 92 32 110
6 12 11 27 13 35 2 8 5 22 8 30 32 88 49 142 45 146 -3 3 -7 2 -8 -3z"/>
<path d="M6454 8013 c1 -10 9 -31 15 -48 14 -34 42 -115 46 -130 1 -5 10 -37
20 -70 24 -76 23 -74 31 -115 3 -19 10 -37 15 -38 5 -2 7 -7 5 -11 -3 -4 2
-32 10 -62 8 -30 17 -67 19 -84 3 -16 9 -52 15 -80 14 -68 16 -78 29 -175 7
-47 15 -98 18 -115 3 -16 7 -52 9 -80 2 -27 6 -70 9 -95 5 -41 12 -129 14
-171 1 -12 10 -17 35 -17 19 0 39 -3 45 -7 6 -3 11 -2 11 4 0 6 11 6 30 1 17
-5 30 -5 30 0 0 5 13 5 30 0 17 -5 30 -5 30 0 0 5 13 5 30 0 17 -5 30 -5 30 0
0 5 13 5 30 0 17 -5 30 -5 30 0 0 5 13 5 30 0 17 -5 30 -5 30 0 0 5 13 5 30 0
17 -5 30 -5 30 0 0 5 13 5 30 0 17 -5 30 -5 30 0 0 5 12 5 28 2 15 -4 39 -6
55 -4 21 3 27 9 27 27 0 13 -5 27 -10 30 -6 4 -8 10 -6 14 5 8 -34 168 -53
214 -6 15 -7 27 -4 27 4 0 2 5 -5 12 -7 7 -12 18 -12 24 0 7 -16 47 -35 88
-19 42 -35 78 -35 81 0 2 -13 27 -30 55 -16 27 -27 50 -24 50 2 0 0 6 -5 13
-6 6 -42 59 -80 117 -39 58 -85 123 -103 145 -36 44 -219 228 -258 260 -63 51
-152 115 -159 115 -4 0 -16 9 -26 20 -22 25 -36 26 -31 3z"/>
<path d="M3573 6082 c-20 -3 -22 -8 -18 -40 10 -83 59 -253 102 -357 40 -97
105 -230 114 -233 5 -2 9 -8 9 -14 0 -32 172 -263 278 -372 78 -80 286 -256
305 -256 4 0 17 -9 29 -20 41 -38 45 -21 13 55 -25 59 -107 334 -121 409 -2
11 -7 32 -10 46 -6 25 -28 138 -39 195 -3 17 -7 39 -10 50 -2 11 -7 49 -11 85
-3 36 -8 68 -10 72 -5 8 -11 58 -18 158 -3 36 -6 65 -6 65 -1 0 -4 32 -6 70
-5 92 -7 97 -38 85 -16 -6 -27 -6 -31 0 -4 6 -13 7 -23 1 -11 -6 -24 -6 -34 0
-10 6 -19 6 -22 0 -3 -5 -21 -6 -38 -2 -18 4 -45 4 -60 0 -16 -4 -30 -3 -34 2
-3 5 -13 5 -22 1 -9 -5 -30 -6 -47 -2 -16 3 -42 3 -57 -1 -15 -4 -30 -3 -34 2
-3 5 -12 6 -21 0 -9 -5 -29 -5 -45 -1 -16 5 -28 5 -28 0 0 -5 -10 -6 -22 -2
-13 4 -33 6 -45 4z"/>
<path d="M4840 6081 c-24 -6 -25 -9 -23 -61 3 -67 9 -130 24 -235 6 -44 13
-93 14 -110 2 -16 4 -30 5 -30 1 0 3 -11 6 -25 8 -52 13 -76 18 -100 4 -14 9
-38 12 -55 5 -29 51 -220 58 -240 2 -5 5 -14 6 -20 7 -31 81 -229 105 -280 15
-33 31 -69 36 -80 5 -11 22 -42 39 -70 16 -27 34 -59 39 -70 20 -41 118 -150
165 -184 52 -37 112 -48 150 -27 28 15 119 87 128 101 3 6 20 26 37 45 17 19
31 41 31 48 0 6 4 12 9 12 19 0 152 290 200 435 27 83 52 164 55 180 3 17 12
57 20 91 8 34 17 72 20 85 2 13 7 35 10 49 3 14 8 41 11 60 2 19 7 49 11 65 3
17 7 48 9 70 2 22 4 40 5 40 4 0 10 45 14 100 3 33 5 60 6 60 1 0 4 33 6 74
l5 73 -26 -4 c-14 -3 -25 -1 -25 3 0 5 -11 4 -25 -1 -15 -6 -26 -6 -30 0 -4 6
-13 7 -23 2 -9 -5 -28 -6 -42 -2 -14 4 -37 3 -52 -1 -15 -4 -30 -3 -33 2 -4 5
-15 4 -28 -3 -12 -6 -24 -10 -27 -8 -19 10 -49 18 -54 13 -9 -9 -66 -9 -66 -1
0 4 -11 3 -25 -2 -15 -6 -26 -6 -30 0 -4 6 -13 7 -24 1 -10 -6 -23 -6 -31 -1
-8 5 -21 5 -30 0 -9 -5 -23 -4 -32 1 -10 6 -19 6 -23 0 -3 -7 -15 -7 -30 -1
-15 6 -27 6 -30 0 -3 -6 -15 -6 -30 0 -15 6 -25 6 -25 0 0 -5 -12 -5 -28 -1
-15 5 -37 5 -49 0 -13 -5 -25 -4 -28 1 -3 6 -15 6 -29 0 -13 -5 -27 -6 -30 -3
-8 8 -123 6 -135 -2 -5 -3 -12 -1 -16 5 -4 6 -12 7 -22 1 -9 -5 -29 -5 -45 -1
-15 5 -28 5 -28 0 0 -5 -12 -5 -27 -1 -16 4 -39 5 -53 2z"/>
<path d="M6751 6080 c-8 -4 -20 -6 -28 -3 -13 5 -15 -2 -17 -95 -1 -23 -3 -42
-6 -42 -3 0 -6 -24 -7 -53 -2 -70 -14 -174 -33 -287 -5 -30 -11 -68 -14 -85
-31 -189 -90 -429 -147 -593 -60 -172 -58 -158 -21 -136 18 10 32 22 32 26 0
4 5 8 12 8 20 0 168 119 253 205 100 99 160 167 205 231 19 27 38 54 43 59 19
24 87 135 87 143 0 5 8 20 18 33 23 29 122 259 122 282 0 9 4 17 8 17 5 0 9 6
10 13 0 6 14 65 31 131 37 141 38 150 11 143 -11 -3 -20 -1 -20 4 0 5 -10 5
-24 -1 -13 -5 -27 -6 -30 -3 -8 8 -123 6 -135 -2 -5 -3 -12 -2 -15 3 -5 9 -70
7 -86 -3 -5 -3 -11 -1 -15 5 -4 6 -13 7 -23 1 -11 -6 -24 -6 -34 0 -10 6 -19
6 -22 0 -3 -5 -21 -6 -38 -2 -18 4 -44 4 -58 1 -14 -4 -30 -3 -35 1 -6 4 -17
4 -24 -1z"/>
</g>
</svg>
